<svg id="Layer_1" data-name="Layer 1" xmlns="http://www.w3.org/2000/svg" viewBox="0 0 447.69 239.45"><defs><style>.cls-1{fill:#003262;}.cls-2{fill:#ff6c0c;}</style></defs><path class="cls-1" d="M29,239.12h20.5v16.8c7.2-12.8,18.6-19.1,34-19.1,12.8,0,23.1,4.1,31,12.1s11.9,19.8,11.9,35c0,9.5-1.9,17.8-5.8,25.1a43.4,43.4,0,0,1-15.8,16.8,42.85,42.85,0,0,1-22.2,5.9c-7.6,0-14.2-1.3-19.8-4a30.83,30.83,0,0,1-13.1-11.6l.2,61.6H29Zm48.5,74.6c8.6,0,15.2-2.7,19.8-8.2s6.9-12.5,6.9-21c0-9-2.3-16.1-6.8-21.4s-11.2-8-19.9-8a27,27,0,0,0-13.3,3.5,26.14,26.14,0,0,0-9.9,9.9,29.88,29.88,0,0,0-3.6,14.9v1.4a30.93,30.93,0,0,0,3.6,15.1,26.12,26.12,0,0,0,23.2,13.8Z" transform="translate(-29.01 -138.27)"/><path class="cls-1" d="M189,331.72a45,45,0,0,1-22.6-5.8,44.09,44.09,0,0,1-16.6-16.6c-4.1-7.2-6.2-15.6-6.2-25.2s1.8-17.8,5.4-24.9a40.06,40.06,0,0,1,15.5-16.6c6.7-4,14.6-5.9,23.7-5.9a38.23,38.23,0,0,1,14.8,2.8,39.46,39.46,0,0,1,11.6,6.8c3.2,2.7,5.3,5.4,6.3,8l.4-15.2h20.4v90.6h-20.1l-.4-16c-2.2,4.7-6.3,8.9-12.2,12.5A36.9,36.9,0,0,1,189,331.72Zm3.6-17.8a25.42,25.42,0,0,0,18.9-7.8c5.1-5.2,7.7-12,7.7-20.5v-1.3a31.6,31.6,0,0,0-3.6-15.2,26.62,26.62,0,0,0-9.7-10.5,25.4,25.4,0,0,0-13.4-3.8c-8.4,0-15,2.7-19.6,8.2-4.4,5.6-6.7,12.6-6.7,21.3s2.3,16,6.8,21.4S184.14,313.92,192.64,313.92Z" transform="translate(-29.01 -138.27)"/><path class="cls-1" d="M312.7,331.72a50,50,0,0,1-24.2-5.8,43.15,43.15,0,0,1-17.1-16.8q-6.3-11-6.3-25.8c0-9.3,1.9-17.5,5.8-24.6a40.59,40.59,0,0,1,16.4-16.2c7-3.8,15.2-5.7,24.4-5.7a54.33,54.33,0,0,1,18.1,2.7,35,35,0,0,1,11.9,6.6l-9.5,17.2c-5.5-5.5-11.8-8.3-18.8-8.3-8.4,0-14.8,2.6-19.2,7.7s-6.6,12-6.6,20.5c0,9.8,2.3,17.3,6.8,22.7s10.9,8.1,19,8.1a39.44,39.44,0,0,0,11.9-1.8,29.12,29.12,0,0,0,9-4.2l7.7,15a43.84,43.84,0,0,1-12.1,6A52.15,52.15,0,0,1,312.7,331.72Z" transform="translate(-29.01 -138.27)"/><polygon class="cls-1" points="341.29 100.73 341.29 100.84 325.29 100.84 325.29 118.25 341.29 118.25 341.29 191.54 362.79 191.54 362.79 124.09 341.29 100.73"/><polygon class="cls-2" points="362.79 118.25 383.69 118.25 383.69 100.94 362.79 100.94 362.79 59.24 341.29 63.95 341.29 100.73 362.79 124.09 362.79 118.25"/><polygon class="cls-2" points="424.78 191.44 424.78 100.84 402.68 100.84 402.68 167.43 424.78 191.44 424.78 191.44"/><polygon class="cls-1" points="424.78 191.44 402.68 167.43 402.68 191.44 424.78 191.44"/><path class="cls-2" d="M429.1,161.4c-.1-.3-.1-.6-.2-.9a20,20,0,0,0-.5-2.6,13.57,13.57,0,0,0-.9-2.3c.1,0,.1,0,.1-.1,1.6-1.4,3.2-2.9,4.7-4.4-.2-.3-.3-.7-.6-1.1a13.3,13.3,0,0,0-1.4-1.9,24.29,24.29,0,0,0-2.6-3c-1.9,1.2-3.7,2.3-5.5,3.5h-.1a8.28,8.28,0,0,0-1.5-1.1,23.86,23.86,0,0,0-2.2-1.2c-.1,0-.2,0-.2-.1a4.65,4.65,0,0,1-.9-.3l.3-6.6c-1-.3-1.9-.5-2.9-.7l-1.7-.2c-1,0-2-.2-3-.1-.5,2.1-1,4.2-1.5,6.4a2.77,2.77,0,0,1-.9.1,28,28,0,0,0-2.8.6c-.6.2-1.4.5-2,.7-1.4-1.5-2.9-3.2-4.3-4.8h-.1a29,29,0,0,0-6,4.6h.1c1,1.9,2.2,3.8,3.3,5.6a9.39,9.39,0,0,0-1.2,1.8,9.21,9.21,0,0,0-1.3,2.4,3.18,3.18,0,0,0-.3.9c-2.2-.1-4.4-.2-6.6-.2-.3,1-.5,2-.7,3l-.2,1.6a27.15,27.15,0,0,0-.1,2.8,64.25,64.25,0,0,0,6.3,1.5,4.05,4.05,0,0,0,0,1.1.37.37,0,0,0,.1.3,22.68,22.68,0,0,0,.6,2.5,11.76,11.76,0,0,0,.7,2l-4.7,4.4-.1.1a12.75,12.75,0,0,0,.7,1.2,10.13,10.13,0,0,0,1.4,2,29.86,29.86,0,0,0,2.4,2.8v-.1c1.9-1.1,3.6-2.2,5.5-3.4a21,21,0,0,0,1.7,1.4,12.68,12.68,0,0,0,2.3,1.2,2.6,2.6,0,0,0,1,.4c-.1,2.2-.2,4.4-.2,6.6a14.58,14.58,0,0,0,3,.7,22,22,0,0,0,4.4.2c.5-2.1,1-4.1,1.5-6.3a2,2,0,0,0,1.1-.1c.9-.1,1.7-.3,2.7-.5a13.27,13.27,0,0,0,2.1-.9c1.5,1.6,2.9,3.2,4.3,4.8a22.79,22.79,0,0,0,6.1-4.6h-.1c-1.1-1.8-2.2-3.7-3.3-5.5v-.1c.4-.5.7-1,1.1-1.5a13.83,13.83,0,0,0,1.4-2.7,6.89,6.89,0,0,0,.4-1c2.1.1,4.3.2,6.5.2.2-.9.4-1.8.6-2.8l.2-1.5a18.29,18.29,0,0,0,.2-3.3C433.4,162.4,431.2,161.9,429.1,161.4Z" transform="translate(-29.01 -138.27)"/><path class="cls-2" d="M469.3,205.4a20,20,0,0,0,.2-3.4c-.1-1-.2-2.1-.4-3.1a.1.1,0,0,0,.1-.1l7.5-3.9c-.2-.5-.3-1.1-.5-1.5a26.37,26.37,0,0,0-1-3,33.3,33.3,0,0,0-2.4-4.6c-2.7.7-5.3,1.6-8.1,2.4-.5-.7-1-1.3-1.5-1.9-.8-.8-1.7-1.7-2.5-2.4-.1,0-.2-.1-.3-.1-.3-.2-.6-.5-.9-.7.9-2.7,1.7-5.5,2.6-8.2a28.64,28.64,0,0,0-3.5-1.8c-.3-.1-.6-.3-.9-.4a3.55,3.55,0,0,1-.9-.4,25.94,25.94,0,0,0-3.7-1.1c-1.4,2.4-2.7,5-4.1,7.5l-1.2-.2a15.28,15.28,0,0,0-3.7-.1,24.52,24.52,0,0,0-2.7.2c-1.2-2.5-2.6-5-4-7.5V171a32,32,0,0,0-9,3.8q1.05,4,2.4,8.1c-.8.6-1.6,1.2-2.3,1.8a27.25,27.25,0,0,0-2.3,2.5,6.47,6.47,0,0,0-.8.9c-2.7-.8-5.4-1.7-8.1-2.5a30.4,30.4,0,0,0-1.9,3.6c-.2.1-.3.5-.4.8a1.62,1.62,0,0,0-.4,1c-.5,1.2-.8,2.3-1.2,3.5,2.5,1.5,4.9,2.7,7.4,4l-.2,1.8c-.1,1.2-.1,2.3-.1,3.4a14.07,14.07,0,0,0,.3,2.8c-2.5,1.3-5,2.6-7.4,3.9l-.1.1a9.51,9.51,0,0,0,.4,1.8,15.36,15.36,0,0,0,1.1,3,19,19,0,0,0,2.1,4.3h.1c2.6-.8,5.2-1.6,7.9-2.4a19.17,19.17,0,0,0,1.8,2.2,14.78,14.78,0,0,0,2.5,2.5,5.38,5.38,0,0,0,1.2.9c-.9,2.7-1.8,5.4-2.6,8.2a37.18,37.18,0,0,0,3.4,1.9c1.9.7,3.7,1.3,5.6,1.8l4.1-7.4,1.4.2a13.55,13.55,0,0,0,3.5.1,17.09,17.09,0,0,0,3.1-.3c1.2,2.5,2.5,4.9,3.9,7.5a38.83,38.83,0,0,0,9-3.7V231c-.8-2.7-1.6-5.3-2.4-8.1a14.62,14.62,0,0,0,1.9-1.6,18.44,18.44,0,0,0,2.6-2.9c.2-.3.5-.6.8-1,2.6.9,5.3,1.7,8,2.4a19.62,19.62,0,0,0,1.7-3.2c.1-.3.4-.9.8-1.8a31.74,31.74,0,0,0,1.4-4c-2.5-1.5-4.9-2.8-7.5-4.1Z" transform="translate(-29.01 -138.27)"/></svg>