<svg xmlns="http://www.w3.org/2000/svg" xmlns:xlink="http://www.w3.org/1999/xlink" width="500" zoomAndPan="magnify" viewBox="0 0 375 374.999991" height="500" preserveAspectRatio="xMidYMid meet" version="1.0"><defs><g/><clipPath id="4c1a0ee59f"><path d="M 288 103 L 327 103 L 327 142 L 288 142 Z M 288 103 " clip-rule="nonzero"/></clipPath><clipPath id="7ee833b163"><path d="M 282.109375 169.554688 L 291.800781 101.046875 L 363.914062 111.246094 L 354.226562 179.753906 Z M 282.109375 169.554688 " clip-rule="nonzero"/></clipPath><clipPath id="7f95442541"><path d="M 282.109375 169.554688 L 291.800781 101.046875 L 363.914062 111.246094 L 354.226562 179.753906 Z M 282.109375 169.554688 " clip-rule="nonzero"/></clipPath><clipPath id="4bda40639f"><path d="M 282.109375 169.554688 L 291.800781 101.046875 L 363.914062 111.246094 L 354.226562 179.753906 Z M 282.109375 169.554688 " clip-rule="nonzero"/></clipPath><clipPath id="b216009dcf"><path d="M 301 116 L 314 116 L 314 129 L 301 129 Z M 301 116 " clip-rule="nonzero"/></clipPath><clipPath id="3d2e64cf7a"><path d="M 282.109375 169.554688 L 291.800781 101.046875 L 363.914062 111.246094 L 354.226562 179.753906 Z M 282.109375 169.554688 " clip-rule="nonzero"/></clipPath><clipPath id="5fbeb682d0"><path d="M 282.109375 169.554688 L 291.800781 101.046875 L 363.914062 111.246094 L 354.226562 179.753906 Z M 282.109375 169.554688 " clip-rule="nonzero"/></clipPath><clipPath id="f65f22945a"><path d="M 282.109375 169.554688 L 291.800781 101.046875 L 363.914062 111.246094 L 354.226562 179.753906 Z M 282.109375 169.554688 " clip-rule="nonzero"/></clipPath><clipPath id="28b4d47e2a"><path d="M 309 128 L 358 128 L 358 177 L 309 177 Z M 309 128 " clip-rule="nonzero"/></clipPath><clipPath id="5f5b8a2b0f"><path d="M 282.109375 169.554688 L 291.800781 101.046875 L 363.914062 111.246094 L 354.226562 179.753906 Z M 282.109375 169.554688 " clip-rule="nonzero"/></clipPath><clipPath id="25f699617f"><path d="M 282.109375 169.554688 L 291.800781 101.046875 L 363.914062 111.246094 L 354.226562 179.753906 Z M 282.109375 169.554688 " clip-rule="nonzero"/></clipPath><clipPath id="e58b625ccb"><path d="M 282.109375 169.554688 L 291.800781 101.046875 L 363.914062 111.246094 L 354.226562 179.753906 Z M 282.109375 169.554688 " clip-rule="nonzero"/></clipPath><clipPath id="6cddec98a4"><path d="M 325 144 L 342 144 L 342 160 L 325 160 Z M 325 144 " clip-rule="nonzero"/></clipPath><clipPath id="52b04bd364"><path d="M 282.109375 169.554688 L 291.800781 101.046875 L 363.914062 111.246094 L 354.226562 179.753906 Z M 282.109375 169.554688 " clip-rule="nonzero"/></clipPath><clipPath id="484f12339f"><path d="M 282.109375 169.554688 L 291.800781 101.046875 L 363.914062 111.246094 L 354.226562 179.753906 Z M 282.109375 169.554688 " clip-rule="nonzero"/></clipPath><clipPath id="269f2bd090"><path d="M 282.109375 169.554688 L 291.800781 101.046875 L 363.914062 111.246094 L 354.226562 179.753906 Z M 282.109375 169.554688 " clip-rule="nonzero"/></clipPath><clipPath id="f8b7b9fd55"><path d="M 317.394531 136.492188 L 348 136.492188 L 348 167.75 L 317.394531 167.75 Z M 317.394531 136.492188 " clip-rule="nonzero"/></clipPath><clipPath id="7c5c10a4d9"><path d="M 332.679688 136.492188 C 324.238281 136.492188 317.394531 143.414062 317.394531 151.957031 C 317.394531 160.496094 324.238281 167.417969 332.679688 167.417969 C 341.125 167.417969 347.96875 160.496094 347.96875 151.957031 C 347.96875 143.414062 341.125 136.492188 332.679688 136.492188 " clip-rule="nonzero"/></clipPath></defs><g fill="#000000" fill-opacity="1"><g transform="translate(10.911432, 247.317241)"><g><path d="M 10.8125 -67.96875 L 26.21875 -67.96875 L 26.21875 -55.390625 C 31.644531 -64.960938 40.132812 -69.75 51.6875 -69.75 C 61.257812 -69.75 69.007812 -66.710938 74.9375 -60.640625 C 80.863281 -54.566406 83.828125 -45.804688 83.828125 -34.359375 C 83.828125 -27.242188 82.367188 -20.972656 79.453125 -15.546875 C 76.535156 -10.117188 72.582031 -5.921875 67.59375 -2.953125 C 62.613281 0.00390625 57.0625 1.484375 50.9375 1.484375 C 45.21875 1.484375 40.257812 0.472656 36.0625 -1.546875 C 31.863281 -3.578125 28.582031 -6.46875 26.21875 -10.21875 L 26.359375 35.984375 L 10.8125 35.984375 Z M 47.234375 -12 C 53.660156 -12 58.597656 -14.046875 62.046875 -18.140625 C 65.503906 -22.234375 67.234375 -27.488281 67.234375 -33.90625 C 67.234375 -40.625 65.53125 -45.984375 62.125 -49.984375 C 58.71875 -53.984375 53.753906 -55.984375 47.234375 -55.984375 C 43.679688 -55.984375 40.347656 -55.117188 37.234375 -53.390625 C 34.128906 -51.660156 31.660156 -49.191406 29.828125 -45.984375 C 28.003906 -42.773438 27.09375 -39.046875 27.09375 -34.796875 L 27.09375 -33.765625 C 27.09375 -29.515625 28.003906 -25.734375 29.828125 -22.421875 C 31.660156 -19.117188 34.109375 -16.554688 37.171875 -14.734375 C 40.234375 -12.910156 43.585938 -12 47.234375 -12 Z M 47.234375 -12 "/></g></g></g><g fill="#000000" fill-opacity="1"><g transform="translate(101.236737, 247.317241)"><g><path d="M 40.578125 1.484375 C 34.453125 1.484375 28.796875 0.03125 23.609375 -2.875 C 18.429688 -5.789062 14.285156 -9.941406 11.171875 -15.328125 C 8.066406 -20.710938 6.515625 -27.003906 6.515625 -34.203125 C 6.515625 -41.316406 7.867188 -47.535156 10.578125 -52.859375 C 13.296875 -58.191406 17.171875 -62.335938 22.203125 -65.296875 C 27.242188 -68.265625 33.171875 -69.75 39.984375 -69.75 C 43.929688 -69.75 47.632812 -69.054688 51.09375 -67.671875 C 54.550781 -66.296875 57.460938 -64.59375 59.828125 -62.5625 C 62.203125 -60.539062 63.78125 -58.546875 64.5625 -56.578125 L 64.859375 -67.96875 L 80.125 -67.96875 L 80.125 0 L 65.015625 0 L 64.71875 -12 C 63.039062 -8.445312 59.976562 -5.3125 55.53125 -2.59375 C 51.09375 0.125 46.109375 1.484375 40.578125 1.484375 Z M 43.25 -11.84375 C 48.875 -11.84375 53.609375 -13.789062 57.453125 -17.6875 C 61.304688 -21.59375 63.234375 -26.707031 63.234375 -33.03125 L 63.234375 -34.0625 C 63.234375 -38.300781 62.34375 -42.097656 60.5625 -45.453125 C 58.789062 -48.816406 56.375 -51.4375 53.3125 -53.3125 C 50.25 -55.1875 46.894531 -56.125 43.25 -56.125 C 36.925781 -56.125 32.035156 -54.070312 28.578125 -49.96875 C 25.128906 -45.875 23.40625 -40.570312 23.40625 -34.0625 C 23.40625 -27.445312 25.109375 -22.085938 28.515625 -17.984375 C 31.921875 -13.890625 36.832031 -11.84375 43.25 -11.84375 Z M 43.25 -11.84375 "/></g></g></g><g fill="#000000" fill-opacity="1"><g transform="translate(192.302402, 247.317241)"><g><path d="M 42.203125 1.484375 C 35.492188 1.484375 29.445312 0.03125 24.0625 -2.875 C 18.6875 -5.789062 14.414062 -9.988281 11.25 -15.46875 C 8.09375 -20.945312 6.515625 -27.390625 6.515625 -34.796875 C 6.515625 -41.804688 7.96875 -47.953125 10.875 -53.234375 C 13.789062 -58.515625 17.890625 -62.585938 23.171875 -65.453125 C 28.453125 -68.316406 34.550781 -69.75 41.46875 -69.75 C 46.695312 -69.75 51.210938 -69.082031 55.015625 -67.75 C 58.816406 -66.414062 61.800781 -64.765625 63.96875 -62.796875 L 56.875 -49.90625 C 52.71875 -54.050781 48.023438 -56.125 42.796875 -56.125 C 36.484375 -56.125 31.671875 -54.195312 28.359375 -50.34375 C 25.054688 -46.5 23.40625 -41.367188 23.40625 -34.953125 C 23.40625 -27.640625 25.109375 -21.957031 28.515625 -17.90625 C 31.921875 -13.863281 36.679688 -11.84375 42.796875 -11.84375 C 45.859375 -11.84375 48.84375 -12.285156 51.75 -13.171875 C 54.664062 -14.066406 56.914062 -15.109375 58.5 -16.296875 L 64.265625 -5.03125 C 62.097656 -3.351562 59.0625 -1.847656 55.15625 -0.515625 C 51.257812 0.816406 46.941406 1.484375 42.203125 1.484375 Z M 42.203125 1.484375 "/></g></g></g><g fill="#000000" fill-opacity="1"><g transform="translate(261.304994, 247.317241)"><g><path d="M 16.4375 -54.9375 L 4.4375 -54.9375 L 4.4375 -67.96875 L 16.4375 -67.96875 L 16.4375 -95.671875 L 32.578125 -99.21875 L 32.578125 -67.96875 L 48.28125 -67.96875 L 48.28125 -54.9375 L 32.578125 -54.9375 L 32.578125 0 L 16.4375 0 Z M 16.4375 -54.9375 "/></g></g></g><g fill="#000000" fill-opacity="1"><g transform="translate(312.094443, 247.317241)"><g><path d="M 11.703125 -67.96875 L 28.28125 -67.96875 L 28.28125 0 L 11.703125 0 Z M 19.84375 -80.71875 C 16.789062 -80.71875 14.226562 -81.753906 12.15625 -83.828125 C 10.082031 -85.898438 9.046875 -88.460938 9.046875 -91.515625 C 9.046875 -94.285156 10.082031 -96.65625 12.15625 -98.625 C 14.226562 -100.601562 16.789062 -101.59375 19.84375 -101.59375 C 22.8125 -101.59375 25.332031 -100.601562 27.40625 -98.625 C 29.476562 -96.65625 30.515625 -94.285156 30.515625 -91.515625 C 30.515625 -88.460938 29.5 -85.898438 27.46875 -83.828125 C 25.445312 -81.753906 22.90625 -80.71875 19.84375 -80.71875 Z M 19.84375 -80.71875 "/></g></g></g><g clip-path="url(#4c1a0ee59f)"><g clip-path="url(#7ee833b163)"><g clip-path="url(#7f95442541)"><g clip-path="url(#4bda40639f)"><path fill="#000000" d="M 298.886719 105.839844 L 298.8125 105.828125 C 297.175781 106.742188 295.726562 107.910156 294.324219 109.3125 L 294.398438 109.324219 C 295.179688 110.730469 296.035156 112.144531 296.898438 113.488281 C 296.527344 113.96875 296.242188 114.386719 295.960938 114.804688 C 295.578125 115.359375 295.199219 115.917969 294.957031 116.570312 C 294.851562 116.78125 294.746094 116.996094 294.710938 117.222656 C 293.066406 117.140625 291.417969 117.058594 289.761719 117.054688 C 289.507812 117.78125 289.402344 118.527344 289.210938 119.339844 L 289.042969 120.539062 C 289.011719 121.296875 288.917969 121.96875 288.96875 122.660156 C 290.488281 123.105469 292.09375 123.484375 293.707031 123.789062 C 293.667969 124.089844 293.707031 124.324219 293.738281 124.632812 C 293.730469 124.707031 293.71875 124.78125 293.78125 124.867188 C 293.84375 125.488281 294.054688 126.125 294.265625 126.765625 C 294.414062 127.320312 294.574219 127.800781 294.804688 128.292969 C 293.589844 129.414062 292.460938 130.476562 291.246094 131.601562 L 291.164062 131.664062 C 291.34375 131.996094 291.519531 132.324219 291.710938 132.582031 C 292.007812 133.15625 292.386719 133.667969 292.777344 134.105469 C 293.273438 134.863281 293.9375 135.488281 294.59375 136.191406 L 294.601562 136.117188 C 295.996094 135.324219 297.328125 134.441406 298.730469 133.574219 C 299.132812 133.9375 299.605469 134.308594 300.019531 134.59375 C 300.566406 134.976562 301.199219 135.296875 301.769531 135.53125 C 302.042969 135.71875 302.328125 135.835938 302.550781 135.867188 C 302.464844 137.535156 302.382812 139.199219 302.382812 140.800781 C 303.097656 141.054688 303.828125 141.234375 304.640625 141.347656 C 305.75 141.507812 306.867188 141.589844 307.933594 141.511719 C 308.304688 139.960938 308.671875 138.410156 309.054688 136.789062 C 309.347656 136.828125 309.65625 136.796875 309.898438 136.679688 C 310.585938 136.625 311.207031 136.484375 311.914062 136.277344 C 312.472656 136.050781 313.023438 135.902344 313.519531 135.589844 C 314.625 136.8125 315.660156 138.027344 316.78125 139.175781 C 318.488281 138.273438 320.011719 137.117188 321.339844 135.703125 L 321.265625 135.695312 C 320.476562 134.363281 319.621094 132.945312 318.753906 131.601562 L 318.765625 131.527344 C 319.039062 131.183594 319.324219 130.769531 319.601562 130.425781 C 319.992188 129.792969 320.390625 129.089844 320.636719 128.4375 C 320.75 128.148438 320.855469 127.933594 320.960938 127.71875 C 322.535156 127.789062 324.183594 127.871094 325.839844 127.875 C 326.007812 127.214844 326.175781 126.550781 326.28125 125.804688 L 326.441406 124.683594 C 326.558594 123.859375 326.601562 123.027344 326.570312 122.183594 C 325.039062 121.816406 323.433594 121.4375 321.828125 121.054688 C 321.789062 120.820312 321.746094 120.585938 321.703125 120.351562 C 321.652344 119.660156 321.511719 119.027344 321.300781 118.390625 C 321.15625 117.835938 320.933594 117.269531 320.636719 116.695312 C 320.710938 116.703125 320.710938 116.703125 320.722656 116.628906 C 321.925781 115.578125 323.140625 114.453125 324.28125 113.320312 C 324.164062 113.074219 324.046875 112.828125 323.867188 112.5 C 323.5625 112 323.183594 111.488281 322.792969 111.050781 C 322.222656 110.285156 321.578125 109.507812 320.851562 108.792969 C 319.445312 109.664062 318.042969 110.53125 316.710938 111.410156 L 316.636719 111.398438 C 316.300781 111.125 315.890625 110.835938 315.476562 110.550781 C 314.917969 110.242188 314.371094 109.859375 313.800781 109.625 C 313.726562 109.617188 313.652344 109.605469 313.664062 109.53125 C 313.367188 109.488281 313.15625 109.382812 313.019531 109.285156 C 313.101562 107.621094 313.1875 105.957031 313.261719 104.363281 C 312.542969 104.109375 311.804688 104.007812 311.078125 103.828125 L 309.820312 103.648438 C 309.070312 103.621094 308.332031 103.515625 307.574219 103.558594 C 307.203125 105.109375 306.824219 106.734375 306.441406 108.355469 C 306.210938 108.398438 305.976562 108.445312 305.757812 108.414062 C 305.058594 108.542969 304.363281 108.671875 303.65625 108.878906 C 303.179688 109.039062 302.621094 109.265625 302.144531 109.425781 C 301.101562 108.289062 299.992188 107.0625 298.886719 105.839844 Z M 302.195312 126.667969 C 300.980469 125.125 300.546875 123.382812 300.886719 121.527344 C 301.089844 119.570312 301.976562 118.097656 303.578125 116.875 C 305.101562 115.714844 306.820312 115.273438 308.667969 115.535156 C 310.589844 115.804688 312.046875 116.699219 313.257812 118.242188 C 314.386719 119.851562 314.832031 121.515625 314.554688 123.460938 C 314.292969 125.328125 313.394531 126.878906 311.875 128.035156 C 310.28125 129.183594 308.632812 129.636719 306.710938 129.367188 C 304.863281 129.105469 303.335938 128.203125 302.195312 126.667969 Z M 302.195312 126.667969 " fill-opacity="1" fill-rule="nonzero"/></g></g></g></g><g clip-path="url(#b216009dcf)"><g clip-path="url(#3d2e64cf7a)"><g clip-path="url(#5fbeb682d0)"><g clip-path="url(#f65f22945a)"><path fill="#000000" d="M 301.859375 121.585938 C 301.625 123.230469 302.027344 124.660156 302.964844 126.015625 C 303.988281 127.300781 305.234375 128.089844 306.859375 128.320312 C 308.484375 128.546875 309.898438 128.136719 311.242188 127.183594 C 312.59375 126.15625 313.375 124.894531 313.605469 123.25 C 313.839844 121.605469 313.4375 120.175781 312.425781 118.8125 C 311.410156 117.449219 310.15625 116.738281 308.53125 116.507812 C 306.90625 116.277344 305.5 116.613281 304.148438 117.640625 C 302.871094 118.679688 302.089844 119.941406 301.859375 121.585938 Z M 304.148438 125.113281 C 303.460938 124.101562 303.167969 122.992188 303.335938 121.796875 C 303.503906 120.601562 304.097656 119.617188 305.035156 118.832031 C 306.050781 118.0625 307.0625 117.824219 308.320312 118 C 309.574219 118.179688 310.554688 118.699219 311.242188 119.710938 C 312.003906 120.734375 312.296875 121.84375 312.128906 123.039062 C 311.960938 124.234375 311.367188 125.21875 310.355469 125.992188 C 309.425781 126.699219 308.328125 127 307.070312 126.824219 C 305.890625 126.65625 304.917969 126.0625 304.148438 125.113281 Z M 304.148438 125.113281 " fill-opacity="1" fill-rule="nonzero"/></g></g></g></g><g clip-path="url(#28b4d47e2a)"><g clip-path="url(#5f5b8a2b0f)"><g clip-path="url(#25f699617f)"><g clip-path="url(#e58b625ccb)"><path fill="#000000" d="M 311.257812 142.515625 C 311.066406 142.792969 310.960938 143.007812 310.929688 143.230469 C 310.582031 144.097656 310.308594 144.972656 310.03125 145.847656 C 311.910156 146.953125 313.738281 147.898438 315.5625 148.84375 L 315.375 150.1875 C 315.320312 151.09375 315.277344 151.929688 315.308594 152.773438 C 315.289062 153.453125 315.414062 154.160156 315.539062 154.863281 C 313.671875 155.820312 311.792969 156.847656 310 157.816406 L 309.914062 157.878906 C 310 158.347656 310.082031 158.820312 310.25 159.222656 C 310.441406 160.011719 310.714844 160.738281 311.0625 161.472656 C 311.433594 162.59375 311.960938 163.660156 312.644531 164.671875 L 312.71875 164.683594 C 314.695312 164.046875 316.65625 163.484375 318.632812 162.851562 C 319.074219 163.445312 319.453125 163.957031 319.984375 164.488281 C 320.488281 165.171875 321.152344 165.800781 321.828125 166.351562 C 322.09375 166.617188 322.367188 166.808594 322.714844 167.011719 C 322.050781 169.050781 321.386719 171.09375 320.792969 173.144531 C 321.628906 173.644531 322.460938 174.144531 323.378906 174.578125 C 324.816406 175.085938 326.175781 175.582031 327.558594 175.933594 L 330.601562 170.414062 L 331.632812 170.558594 C 332.449219 170.675781 333.34375 170.726562 334.261719 170.628906 C 335.011719 170.65625 335.78125 170.535156 336.554688 170.417969 C 337.492188 172.304688 338.441406 174.117188 339.457031 176.011719 C 341.796875 175.429688 344.046875 174.449219 346.179688 173.226562 L 346.191406 173.152344 C 345.566406 171.160156 345.019531 169.175781 344.40625 167.105469 C 344.914062 166.71875 345.347656 166.324219 345.855469 165.9375 C 346.539062 165.347656 347.175781 164.597656 347.816406 163.773438 C 347.996094 163.570312 348.1875 163.292969 348.453125 163.027344 C 350.394531 163.679688 352.421875 164.273438 354.445312 164.863281 C 354.933594 164.09375 355.34375 163.3125 355.691406 162.449219 C 355.796875 162.234375 356.011719 161.808594 356.261719 161.082031 C 356.707031 160.074219 357.003906 159.050781 357.289062 158.097656 C 355.410156 156.992188 353.59375 155.976562 351.695312 155.019531 L 351.832031 154.046875 C 351.957031 153.152344 352 152.316406 351.96875 151.476562 C 351.925781 150.707031 351.8125 149.925781 351.695312 149.148438 C 351.695312 149.148438 351.769531 149.160156 351.78125 149.082031 C 353.648438 148.128906 355.527344 147.097656 357.394531 146.140625 C 357.226562 145.738281 357.132812 145.34375 357.027344 145.023438 C 356.835938 144.234375 356.5625 143.507812 356.289062 142.78125 C 355.78125 141.566406 355.191406 140.414062 354.515625 139.328125 C 352.480469 139.878906 350.503906 140.515625 348.457031 141.140625 C 348.078125 140.628906 347.6875 140.191406 347.304688 139.683594 C 346.714844 139.066406 346.050781 138.4375 345.449219 137.894531 C 345.375 137.882812 345.3125 137.796875 345.238281 137.789062 C 345.039062 137.605469 344.761719 137.414062 344.5625 137.234375 C 345.226562 135.195312 345.820312 133.140625 346.484375 131.101562 C 345.652344 130.601562 344.808594 130.179688 343.890625 129.742188 C 343.679688 129.636719 343.464844 129.53125 343.183594 129.414062 C 342.96875 129.308594 342.75 129.277344 342.472656 129.085938 C 341.535156 128.800781 340.605469 128.441406 339.730469 128.238281 C 338.644531 130.070312 337.691406 131.992188 336.679688 133.832031 L 335.792969 133.707031 C 334.90625 133.582031 333.933594 133.519531 333.015625 133.621094 C 332.339844 133.601562 331.644531 133.730469 330.957031 133.785156 C 330.019531 131.898438 329.003906 130 327.980469 128.179688 L 327.992188 128.105469 C 325.648438 128.6875 323.410156 129.59375 321.257812 130.964844 C 321.796875 133.023438 322.417969 135.019531 323.039062 137.011719 C 322.449219 137.460938 321.855469 137.914062 321.339844 138.375 C 320.726562 138.972656 320.113281 139.574219 319.640625 140.269531 C 319.386719 140.460938 319.195312 140.738281 319.015625 140.941406 C 316.992188 140.351562 314.972656 139.683594 312.949219 139.09375 C 312.453125 139.9375 311.945312 140.855469 311.511719 141.789062 C 311.40625 142 311.289062 142.289062 311.257812 142.515625 Z M 336.925781 160.328125 C 334.601562 161.296875 332.34375 161.28125 330.074219 160.273438 C 327.796875 159.339844 326.222656 157.671875 325.273438 155.324219 C 324.386719 153.0625 324.417969 150.703125 325.339844 148.472656 C 326.339844 146.171875 327.9375 144.492188 330.246094 143.597656 C 332.570312 142.628906 334.828125 142.644531 337.097656 143.652344 C 339.378906 144.585938 340.949219 146.257812 341.835938 148.515625 C 342.777344 150.9375 342.753906 153.222656 341.761719 155.445312 C 340.832031 157.753906 339.164062 159.425781 336.925781 160.328125 Z M 336.925781 160.328125 " fill-opacity="1" fill-rule="nonzero"/></g></g></g></g><g clip-path="url(#6cddec98a4)"><g clip-path="url(#52b04bd364)"><g clip-path="url(#484f12339f)"><g clip-path="url(#269f2bd090)"><path fill="#000000" d="M 330.632812 158.980469 C 332.546875 159.859375 334.496094 159.90625 336.417969 159.113281 L 336.429688 159.039062 C 338.425781 158.253906 339.753906 156.839844 340.632812 154.902344 C 341.433594 152.957031 341.488281 150.984375 340.71875 148.96875 C 339.875 146.941406 338.554688 145.613281 336.644531 144.730469 L 336.570312 144.722656 C 334.648438 143.914062 332.6875 143.941406 330.765625 144.738281 C 328.769531 145.523438 327.363281 146.925781 326.5625 148.871094 C 325.6875 150.808594 325.695312 152.867188 326.476562 154.808594 C 327.246094 156.824219 328.640625 158.164062 330.632812 158.980469 Z M 328.3125 154.078125 C 327.703125 152.542969 327.679688 151.089844 328.335938 149.65625 C 328.917969 148.214844 329.972656 147.144531 331.492188 146.519531 C 332.9375 145.886719 334.4375 145.945312 335.863281 146.527344 C 337.277344 147.183594 338.332031 148.25 338.878906 149.699219 L 338.953125 149.710938 C 339.492188 151.234375 339.511719 152.6875 338.859375 154.121094 C 338.265625 155.636719 337.222656 156.632812 335.703125 157.257812 C 334.265625 157.816406 332.832031 157.84375 331.332031 157.25 C 329.917969 156.589844 328.9375 155.539062 328.3125 154.078125 Z M 328.3125 154.078125 " fill-opacity="1" fill-rule="nonzero"/></g></g></g></g><g clip-path="url(#f8b7b9fd55)"><g clip-path="url(#7c5c10a4d9)"><path fill="#000000" d="M 317.394531 136.492188 L 347.757812 136.492188 L 347.757812 167.75 L 317.394531 167.75 Z M 317.394531 136.492188 " fill-opacity="1" fill-rule="nonzero"/></g></g></svg>