<?xml version="1.0" encoding="UTF-8"?><svg id="Layer_1" xmlns="http://www.w3.org/2000/svg" viewBox="0 0 1123.5 368"><defs><style>.cls-1{fill:#fff;}.cls-2{font-family:TimesNewRomanPS-ItalicMT, 'Times New Roman';}.cls-2,.cls-3{font-size:84px;}.cls-4,.cls-5{fill:none;stroke:#000;stroke-miterlimit:10;stroke-width:3px;}.cls-6{letter-spacing:-.11em;}.cls-7{fill:#202020;}.cls-3{font-family:TimesNewRomanPSMT, 'Times New Roman';}.cls-5{stroke-dasharray:0 0 11.75 11.75;}</style></defs><g><polygon class="cls-1" points="187.03 21.29 467.61 183.28 187.03 345.27 187.03 21.29"/><path d="M188.53,23.89L464.61,183.28,188.53,342.67V23.89m-3-5.2V347.87L470.61,183.28,185.53,18.69h0Z"/></g><g><polygon class="cls-1" points="941 183.28 655.92 18.69 655.92 347.87 941 183.28"/><g><polyline class="cls-4" points="935.8 186.28 941 183.28 935.8 180.28"/><line class="cls-5" x1="925.63" y1="174.41" x2="666.2" y2="24.63"/><polyline class="cls-4" points="661.12 21.69 655.92 18.69 655.92 24.69"/><line class="cls-5" x1="655.92" y1="36.44" x2="655.92" y2="336"/><polyline class="cls-4" points="655.92 341.87 655.92 347.87 661.12 344.87"/><line class="cls-5" x1="671.29" y1="339" x2="930.71" y2="189.22"/></g></g><polygon class="cls-7" points="0 184.87 166.33 184.87 162.85 193.05 186 183.28 162.85 173.51 166.33 181.7 0 181.7 0 184.87"/><polygon class="cls-7" points="469.5 184.87 635.83 184.87 632.35 193.05 655.5 183.28 632.35 173.51 635.83 181.7 469.5 181.7 469.5 184.87"/><polygon class="cls-7" points="937.5 184.87 1103.83 184.87 1100.35 193.05 1123.5 183.28 1100.35 173.51 1103.83 181.7 937.5 181.7 937.5 184.87"/><text class="cls-2" transform="translate(237.07 208.72)"><tspan x="0" y="0">M</tspan><tspan class="cls-6" x="69.97" y="0">’</tspan></text><text class="cls-3" transform="translate(718.4 208.72)"><tspan x="0" y="0">?</tspan></text><text class="cls-2" transform="translate(43.29 158.78)"><tspan x="0" y="0">i</tspan></text><text class="cls-2" transform="translate(540.29 158.78)"><tspan x="0" y="0">o</tspan></text><text class="cls-2" transform="translate(988.29 158.78)"><tspan x="0" y="0">o</tspan><tspan class="cls-6" x="42" y="0">’</tspan></text><rect class="cls-4" x="119" y="1.5" width="851" height="365"/><text class="cls-2" transform="translate(21.66 337.72)"><tspan x="0" y="0">M</tspan></text></svg>