<?xml version="1.0" encoding="UTF-8"?><svg id="Layer_1" xmlns="http://www.w3.org/2000/svg" viewBox="0 0 1205 388"><defs><style>.cls-1{fill:#fff;}.cls-2,.cls-3{fill:none;stroke:#000;stroke-miterlimit:10;stroke-width:3px;}.cls-4{fill:#202020;}.cls-5{fill:#ccc;}.cls-3{stroke-dasharray:0 0 11.75 11.75;}</style></defs><g><rect class="cls-5" x=".5" y=".5" width="1204" height="387"/><path d="M1204,1V387H1V1H1204m1-1H0V388H1205V0h0Z"/></g><g><polygon class="cls-1" points="219.53 27.29 500.11 189.28 219.53 351.27 219.53 27.29"/><path d="M221.03,29.89L497.11,189.28,221.03,348.67V29.89m-3-5.2V353.87L503.11,189.28,218.03,24.69h0Z"/></g><g><polygon class="cls-1" points="973.5 189.28 688.42 24.69 688.42 353.87 973.5 189.28"/><g><polyline class="cls-2" points="968.3 192.28 973.5 189.28 968.3 186.28"/><line class="cls-3" x1="958.13" y1="180.41" x2="698.7" y2="30.63"/><polyline class="cls-2" points="693.62 27.69 688.42 24.69 688.42 30.69"/><line class="cls-3" x1="688.42" y1="42.44" x2="688.42" y2="342"/><polyline class="cls-2" points="688.42 347.87 688.42 353.87 693.62 350.87"/><line class="cls-3" x1="703.79" y1="345" x2="963.21" y2="195.22"/></g></g><polygon class="cls-4" points="32.5 190.87 198.83 190.87 195.35 199.05 218.5 189.28 195.35 179.51 198.83 187.7 32.5 187.7 32.5 190.87"/><polygon class="cls-4" points="502 190.87 668.33 190.87 664.85 199.05 688 189.28 664.85 179.51 668.33 187.7 502 187.7 502 190.87"/><polygon class="cls-4" points="970 190.87 1136.33 190.87 1132.85 199.05 1156 189.28 1132.85 179.51 1136.33 187.7 970 187.7 970 190.87"/><g><path d="M296.19,159.1l5.13,44.79,32.28-44.79h13.58v1.52c-2.95,.19-4.69,.38-5.21,.57-.9,.36-1.73,1.07-2.48,2.13-.75,1.07-1.57,3.12-2.44,6.15l-10.29,35.27c-.6,2.05-.9,3.66-.9,4.84,0,1.07,.37,1.87,1.11,2.42,1.04,.79,2.68,1.19,4.92,1.19h.98l-.37,1.52h-23.42l.41-1.52h1.11c2.08,0,3.66-.3,4.76-.9,.85-.44,1.61-1.26,2.28-2.48,.67-1.22,1.61-3.92,2.81-8.1l9.19-32.24-32.44,45.24h-1.64l-5.21-45.24-9.93,34.41c-.85,2.93-1.27,4.9-1.27,5.91s.37,1.78,1.11,2.32,2.53,.9,5.37,1.09l-.45,1.52h-18.33l.45-1.52h1.11c2.71,0,4.66-.68,5.87-2.05,.88-.98,1.79-3.12,2.75-6.4l12.1-41.47c-.9-.93-1.76-1.56-2.58-1.89s-2.34-.59-4.55-.78l.41-1.52h13.82Z"/><path d="M355.99,174.44c2.05-.9,3.72-2.08,5-3.53,.98-1.09,1.48-2.13,1.48-3.12,0-.52-.08-.98-.25-1.39-.11-.22-.49-.66-1.15-1.31s-1.03-1.11-1.11-1.35c-.19-.44-.29-.97-.29-1.6,0-1.18,.4-2.19,1.21-3.04,.81-.85,1.76-1.27,2.85-1.27s2.11,.45,2.97,1.35,1.29,2.04,1.29,3.4c0,2.43-.96,4.9-2.87,7.38-1.91,2.49-4.69,4.42-8.33,5.78l-.82-1.31Z"/></g><path d="M769.52,201.59h-1.68c.19-3.45,.62-6.3,1.29-8.55,.67-2.26,2.06-5.39,4.16-9.41,1.64-3.09,2.71-5.46,3.2-7.12,.49-1.65,.74-3.33,.74-5.02,0-3.47-.92-6.23-2.77-8.29s-4.11-3.08-6.79-3.08c-2.38,0-4.25,.56-5.62,1.68-1.37,1.12-2.05,2.34-2.05,3.65,0,1.01,.41,2.26,1.23,3.73s1.23,2.6,1.23,3.36c0,.98-.31,1.81-.94,2.48-.63,.67-1.39,1-2.3,1-1.15,0-2.19-.57-3.14-1.7-.94-1.13-1.42-2.71-1.42-4.74,0-3.09,1.33-5.82,3.98-8.2,2.65-2.38,6.25-3.57,10.79-3.57,5.63,0,9.78,1.64,12.43,4.92,1.97,2.41,2.95,5.07,2.95,8,0,2-.45,4.05-1.33,6.15-.89,2.11-2.58,4.58-5.07,7.42-3.96,4.48-6.39,7.66-7.28,9.54-.89,1.87-1.43,4.45-1.62,7.73Zm-.57,5.09c1.29,0,2.37,.44,3.26,1.33,.89,.89,1.33,1.98,1.33,3.26s-.45,2.33-1.35,3.22-1.98,1.33-3.24,1.33-2.33-.44-3.22-1.33c-.89-.89-1.33-1.96-1.33-3.22s.44-2.37,1.33-3.26c.89-.89,1.96-1.33,3.22-1.33Z"/><path d="M95.11,127.66l-8.12,28.75c-.55,1.94-.82,3.1-.82,3.49,0,.44,.13,.79,.39,1.07,.26,.27,.57,.41,.92,.41,.41,0,.9-.22,1.48-.66,1.56-1.23,3.13-2.98,4.72-5.25l1.44,.94c-1.86,2.84-4.05,5.24-6.56,7.18-1.86,1.45-3.64,2.17-5.33,2.17-1.12,0-2.04-.33-2.75-1-.71-.67-1.07-1.51-1.07-2.52s.34-2.69,1.03-5.04l5.33-18.38c.88-3.01,1.31-4.89,1.31-5.66,0-.6-.21-1.09-.64-1.48-.42-.38-1-.57-1.74-.57-.6,0-1.85,.15-3.73,.45v-1.6l14.15-2.3Zm-.53-16.28c1.15,0,2.12,.4,2.91,1.19,.79,.79,1.19,1.76,1.19,2.91s-.4,2.09-1.21,2.89-1.77,1.21-2.89,1.21-2.09-.4-2.89-1.21c-.81-.81-1.21-1.77-1.21-2.89s.4-2.12,1.19-2.91,1.76-1.19,2.91-1.19Z"/><path d="M611.63,140.5c0,4.1-1.09,8.16-3.26,12.18s-5.2,7.21-9.08,9.56c-3.88,2.35-7.66,3.53-11.32,3.53s-6.8-1.2-9.17-3.59c-2.37-2.39-3.55-5.49-3.55-9.29,0-4.02,1.15-8.05,3.47-12.1,2.31-4.05,5.4-7.25,9.27-9.6,3.87-2.35,7.61-3.53,11.22-3.53s6.58,1.19,8.92,3.57,3.51,5.47,3.51,9.27Zm-6.81-2.83c0-2.54-.62-4.49-1.87-5.84s-2.85-2.03-4.82-2.03c-4.02,0-7.72,2.88-11.09,8.63-3.38,5.76-5.07,11.48-5.07,17.17,0,2.6,.66,4.6,1.97,6.01,1.31,1.41,2.97,2.11,4.96,2.11,3.86,0,7.47-2.86,10.85-8.59,3.38-5.73,5.07-11.55,5.07-17.45Z"/><g><path d="M1059.63,140.5c0,4.1-1.09,8.16-3.26,12.18s-5.2,7.21-9.08,9.56c-3.88,2.35-7.66,3.53-11.32,3.53s-6.8-1.2-9.17-3.59c-2.37-2.39-3.55-5.49-3.55-9.29,0-4.02,1.16-8.05,3.47-12.1,2.31-4.05,5.4-7.25,9.27-9.6,3.87-2.35,7.61-3.53,11.22-3.53s6.58,1.19,8.92,3.57,3.51,5.47,3.51,9.27Zm-6.81-2.83c0-2.54-.62-4.49-1.87-5.84s-2.85-2.03-4.82-2.03c-4.02,0-7.72,2.88-11.09,8.63-3.38,5.76-5.07,11.48-5.07,17.17,0,2.6,.66,4.6,1.97,6.01,1.31,1.41,2.97,2.11,4.96,2.11,3.86,0,7.47-2.86,10.85-8.59,3.38-5.73,5.07-11.55,5.07-17.45Z"/><path d="M1079.24,124.5c2.05-.9,3.72-2.08,5-3.53,.98-1.09,1.48-2.13,1.48-3.12,0-.52-.08-.98-.25-1.39-.11-.22-.49-.66-1.15-1.31s-1.03-1.11-1.11-1.35c-.19-.44-.29-.97-.29-1.6,0-1.18,.4-2.19,1.21-3.04,.81-.85,1.76-1.27,2.85-1.27s2.11,.45,2.97,1.35,1.29,2.04,1.29,3.4c0,2.43-.96,4.9-2.87,7.38-1.91,2.49-4.69,4.42-8.33,5.78l-.82-1.31Z"/></g><rect class="cls-2" x="151.5" y="7.5" width="851" height="365"/><path d="M80.78,288.1l5.13,44.79,32.28-44.79h13.58v1.52c-2.95,.19-4.69,.38-5.21,.57-.9,.36-1.73,1.07-2.48,2.13-.75,1.07-1.57,3.12-2.44,6.15l-10.29,35.27c-.6,2.05-.9,3.67-.9,4.84,0,1.07,.37,1.87,1.11,2.42,1.04,.79,2.68,1.19,4.92,1.19h.98l-.37,1.52h-23.42l.41-1.52h1.11c2.08,0,3.66-.3,4.76-.9,.85-.44,1.61-1.26,2.28-2.48,.67-1.22,1.61-3.92,2.81-8.1l9.19-32.24-32.44,45.24h-1.64l-5.21-45.24-9.93,34.41c-.85,2.93-1.27,4.9-1.27,5.91s.37,1.78,1.11,2.32,2.53,.9,5.37,1.09l-.45,1.52h-18.33l.45-1.52h1.11c2.71,0,4.66-.68,5.87-2.05,.88-.98,1.79-3.12,2.75-6.4l12.1-41.47c-.9-.93-1.76-1.56-2.58-1.89s-2.34-.59-4.55-.78l.41-1.52h13.82Z"/></svg>