<svg id="Layer_1" data-name="Layer 1" xmlns="http://www.w3.org/2000/svg" viewBox="0 0 1123.5 329.18"><defs><style>.cls-1{fill:#fff;}.cls-2{fill:none;stroke:#000;stroke-miterlimit:10;}</style></defs><path class="cls-1" d="M232,34.89,508.11,194.28,232,353.67V34.89m-3-5.2V358.87L514.11,194.28,229,29.69Z" transform="translate(-43.5 -29.69)"/><path class="cls-1" d="M702.42,34.89,978.5,194.28,702.42,353.67V34.89m-3-5.2V358.87L984.5,194.28,699.42,29.69Z" transform="translate(-43.5 -29.69)"/><polygon class="cls-1" points="0 166.17 166.33 166.17 162.85 174.36 186 164.59 162.85 154.82 166.33 163 0 163 0 166.17"/><path class="cls-2" d="M700,194.28" transform="translate(-43.5 -29.69)"/><path class="cls-2" d="M514,194.28" transform="translate(-43.5 -29.69)"/><polygon class="cls-1" points="469.5 166.17 635.83 166.17 632.35 174.36 655.5 164.59 632.35 154.82 635.83 163 469.5 163 469.5 166.17"/><polygon class="cls-1" points="937.5 166.17 1103.83 166.17 1100.35 174.36 1123.5 164.59 1100.35 154.82 1103.83 163 937.5 163 937.5 166.17"/><path class="cls-1" d="M307.19,164.1l5.13,44.79L344.6,164.1h13.57v1.52a30.57,30.57,0,0,0-5.21.57,5.81,5.81,0,0,0-2.48,2.13,23.23,23.23,0,0,0-2.44,6.16l-10.29,35.27a18.5,18.5,0,0,0-.9,4.84A2.81,2.81,0,0,0,338,217a8.18,8.18,0,0,0,4.93,1.19h1l-.37,1.52H320.07l.41-1.52h1.11a10.11,10.11,0,0,0,4.76-.9,5.9,5.9,0,0,0,2.27-2.48,48.77,48.77,0,0,0,2.81-8.1l9.19-32.24-32.44,45.24h-1.64l-5.21-45.24-9.93,34.41a26.61,26.61,0,0,0-1.27,5.91,2.66,2.66,0,0,0,1.11,2.31c.73.54,2.53.9,5.37,1.09l-.45,1.52H277.82l.46-1.52h1.1c2.71,0,4.66-.68,5.87-2q1.31-1.49,2.75-6.4l12.1-41.47a7.89,7.89,0,0,0-2.59-1.88,18.22,18.22,0,0,0-4.55-.78l.41-1.52Z" transform="translate(-43.5 -29.69)"/><path class="cls-1" d="M788.52,164.1l5.13,44.79,32.28-44.79H839.5v1.52a30.57,30.57,0,0,0-5.21.57,5.81,5.81,0,0,0-2.48,2.13,23.23,23.23,0,0,0-2.44,6.16l-10.29,35.27a18.5,18.5,0,0,0-.9,4.84,2.81,2.81,0,0,0,1.1,2.42,8.18,8.18,0,0,0,4.93,1.19h1l-.37,1.52H801.4l.41-1.52h1.11a10.11,10.11,0,0,0,4.76-.9,5.9,5.9,0,0,0,2.27-2.48,48.77,48.77,0,0,0,2.81-8.1L822,174.48l-32.44,45.24h-1.64l-5.21-45.24-9.93,34.41a26.61,26.61,0,0,0-1.27,5.91,2.66,2.66,0,0,0,1.11,2.31q1.09.81,5.37,1.09l-.45,1.52H759.15l.46-1.52h1.1c2.71,0,4.66-.68,5.87-2q1.3-1.49,2.75-6.4l12.1-41.47a7.89,7.89,0,0,0-2.59-1.88,18.22,18.22,0,0,0-4.55-.78l.41-1.52Z" transform="translate(-43.5 -29.69)"/><path class="cls-1" d="M848.32,179.44a14.26,14.26,0,0,0,5-3.53,4.8,4.8,0,0,0,1.47-3.11,3.84,3.84,0,0,0-.24-1.4,7.61,7.61,0,0,0-1.15-1.31,5,5,0,0,1-1.11-1.36,4,4,0,0,1-.29-1.59,4.29,4.29,0,0,1,1.21-3,3.81,3.81,0,0,1,2.85-1.27,4,4,0,0,1,3,1.35,4.74,4.74,0,0,1,1.29,3.41,12.16,12.16,0,0,1-2.87,7.38,18.25,18.25,0,0,1-8.33,5.78Z" transform="translate(-43.5 -29.69)"/><path class="cls-1" d="M106.11,132.66,98,161.41a21,21,0,0,0-.82,3.49,1.47,1.47,0,0,0,.39,1.06,1.21,1.21,0,0,0,.92.41,2.68,2.68,0,0,0,1.48-.65,24.36,24.36,0,0,0,4.71-5.25l1.44.94a29.2,29.2,0,0,1-6.56,7.18,8.8,8.8,0,0,1-5.33,2.17,3.83,3.83,0,0,1-2.75-1,3.33,3.33,0,0,1-1.07-2.53,20.75,20.75,0,0,1,1-5l5.33-18.38a29.66,29.66,0,0,0,1.31-5.66,1.89,1.89,0,0,0-.63-1.47,2.5,2.5,0,0,0-1.75-.58,30.59,30.59,0,0,0-3.73.45V135Zm-.53-16.29a4,4,0,1,1-2.92,1.19A4,4,0,0,1,105.58,116.37Z" transform="translate(-43.5 -29.69)"/><path class="cls-1" d="M622.63,145.5a25.3,25.3,0,0,1-3.26,12.18,24.67,24.67,0,0,1-9.08,9.55A21.79,21.79,0,0,1,599,170.76a12.29,12.29,0,0,1-9.17-3.59,12.63,12.63,0,0,1-3.55-9.29,24.25,24.25,0,0,1,3.47-12.1,26.25,26.25,0,0,1,9.27-9.59,21.55,21.55,0,0,1,11.22-3.53,12,12,0,0,1,8.92,3.57A12.68,12.68,0,0,1,622.63,145.5Zm-6.81-2.83a8.35,8.35,0,0,0-1.86-5.85,6.27,6.27,0,0,0-4.82-2q-6,0-11.1,8.63A33.79,33.79,0,0,0,593,160.59a8.45,8.45,0,0,0,2,6,6.47,6.47,0,0,0,5,2.11q5.79,0,10.85-8.59A34,34,0,0,0,615.82,142.67Z" transform="translate(-43.5 -29.69)"/><path class="cls-1" d="M1070.63,145.5a25.3,25.3,0,0,1-3.26,12.18,24.67,24.67,0,0,1-9.08,9.55,21.79,21.79,0,0,1-11.32,3.53,12.31,12.31,0,0,1-9.17-3.59,12.63,12.63,0,0,1-3.55-9.29,24.25,24.25,0,0,1,3.47-12.1,26.25,26.25,0,0,1,9.27-9.59,21.55,21.55,0,0,1,11.22-3.53,12,12,0,0,1,8.92,3.57A12.68,12.68,0,0,1,1070.63,145.5Zm-6.81-2.83a8.35,8.35,0,0,0-1.86-5.85,6.27,6.27,0,0,0-4.82-2q-6,0-11.1,8.63a33.79,33.79,0,0,0-5.06,17.17,8.45,8.45,0,0,0,2,6,6.47,6.47,0,0,0,5,2.11q5.79,0,10.85-8.59A34,34,0,0,0,1063.82,142.67Z" transform="translate(-43.5 -29.69)"/><path class="cls-1" d="M1090.24,129.5a14.12,14.12,0,0,0,5-3.53,4.77,4.77,0,0,0,1.48-3.12,3.62,3.62,0,0,0-.25-1.39,7.16,7.16,0,0,0-1.15-1.31,5.08,5.08,0,0,1-1.1-1.36,4,4,0,0,1-.29-1.6,4.24,4.24,0,0,1,1.21-3,3.81,3.81,0,0,1,2.85-1.27,4,4,0,0,1,3,1.35,4.71,4.71,0,0,1,1.3,3.41,12.11,12.11,0,0,1-2.88,7.38,18.24,18.24,0,0,1-8.32,5.78Z" transform="translate(-43.5 -29.69)"/></svg>