<?xml version="1.0" encoding="UTF-8"?><svg id="Layer_1" xmlns="http://www.w3.org/2000/svg" viewBox="0 0 1123.5 329.18"><defs><style>.cls-1,.cls-2{fill:#fff;}.cls-3{letter-spacing:-.11em;}.cls-2{font-family:TimesNewRomanPS-ItalicMT, 'Times New Roman';font-size:84px;}</style></defs><path class="cls-1" d="M188.53,5.2L464.61,164.59,188.53,323.98V5.2m-3-5.2V329.18L470.61,164.59,185.53,0h0Z"/><path class="cls-1" d="M658.92,5.2l276.08,159.39-276.08,159.39V5.2m-3-5.2V329.18l285.08-164.59L655.92,0h0Z"/><polygon class="cls-1" points="0 166.17 166.33 166.17 162.85 174.36 186 164.59 162.85 154.82 166.33 163 0 163 0 166.17"/><polygon class="cls-1" points="469.5 166.17 635.83 166.17 632.35 174.36 655.5 164.59 632.35 154.82 635.83 163 469.5 163 469.5 166.17"/><polygon class="cls-1" points="937.5 166.17 1103.83 166.17 1100.35 174.36 1123.5 164.59 1100.35 154.82 1103.83 163 937.5 163 937.5 166.17"/><text class="cls-2" transform="translate(237.07 190.02)"><tspan x="0" y="0">M</tspan></text><text class="cls-2" transform="translate(718.4 190.02)"><tspan x="0" y="0">M</tspan><tspan class="cls-3" x="69.97" y="0">’</tspan></text><text class="cls-2" transform="translate(43.29 140.08)"><tspan x="0" y="0">i</tspan></text><text class="cls-2" transform="translate(540.29 140.08)"><tspan x="0" y="0">o</tspan></text><text class="cls-2" transform="translate(988.29 140.08)"><tspan x="0" y="0">o</tspan><tspan class="cls-3" x="42" y="0">’</tspan></text></svg>