<?xml version="1.0" encoding="UTF-8"?><svg id="Layer_1" xmlns="http://www.w3.org/2000/svg" width="503.9" height="157" viewBox="0 0 503.9 157"><defs><style>.cls-1{fill:#fff;}.cls-2{fill:#202020;}.cls-3{fill:#ccc;}</style></defs><g><rect class="cls-3" x=".5" y=".5" width="502.9" height="156"/><path d="M502.9,1V156H1V1H502.9m1-1H0V157H503.9V0h0Z"/></g><g><polygon class="cls-1" points="92.3 12.05 206.52 77.99 92.3 143.94 92.3 12.05"/><path d="M93.8,14.65l109.72,63.35-109.72,63.35V14.65m-3-5.2V146.54l118.72-68.54L90.8,9.45h0Z"/></g><g><polygon class="cls-1" points="288.19 12.05 402.41 77.99 288.19 143.94 288.19 12.05"/><path d="M289.69,14.65l109.72,63.35-109.72,63.35V14.65m-3-5.2V146.54l118.72-68.54L286.69,9.45h0Z"/></g><polygon class="cls-2" points="13.53 79.58 71.32 79.58 67.85 87.76 90.99 77.99 67.85 68.22 71.32 76.41 13.53 76.41 13.53 79.58"/><polygon class="cls-2" points="209.06 79.58 266.84 79.58 263.37 87.76 286.51 77.99 263.37 68.22 266.84 76.41 209.06 76.41 209.06 79.58"/><polygon class="cls-2" points="403.95 79.58 461.74 79.58 458.27 87.76 481.41 77.99 458.27 68.22 461.74 76.41 403.95 76.41 403.95 79.58"/><path d="M123.35,65.42l2.14,18.65,13.44-18.65h5.65v.63c-1.23,.08-1.95,.16-2.17,.24-.38,.15-.72,.44-1.03,.89-.31,.44-.65,1.3-1.02,2.56l-4.29,14.69c-.25,.85-.38,1.53-.38,2.02,0,.44,.15,.78,.46,1.01,.43,.33,1.12,.5,2.05,.5h.41l-.15,.63h-9.75l.17-.63h.46c.87,0,1.53-.13,1.98-.38,.35-.18,.67-.53,.95-1.03,.28-.51,.67-1.63,1.17-3.37l3.83-13.43-13.51,18.84h-.68l-2.17-18.84-4.13,14.33c-.35,1.22-.53,2.04-.53,2.46s.15,.74,.46,.97c.31,.22,1.05,.37,2.24,.45l-.19,.63h-7.64l.19-.63h.46c1.13,0,1.94-.28,2.44-.85,.36-.41,.75-1.3,1.14-2.66l5.04-17.27c-.38-.39-.73-.65-1.08-.79-.34-.14-.97-.24-1.9-.32l.17-.63h5.76Z"/><g><path d="M323.8,65.42l2.14,18.65,13.44-18.65h5.65v.63c-1.23,.08-1.95,.16-2.17,.24-.38,.15-.72,.44-1.03,.89-.31,.44-.65,1.3-1.02,2.56l-4.29,14.69c-.25,.85-.38,1.53-.38,2.02,0,.44,.15,.78,.46,1.01,.43,.33,1.12,.5,2.05,.5h.41l-.15,.63h-9.75l.17-.63h.46c.87,0,1.53-.13,1.98-.38,.35-.18,.67-.53,.95-1.03,.28-.51,.67-1.63,1.17-3.37l3.83-13.43-13.51,18.84h-.68l-2.17-18.84-4.13,14.33c-.35,1.22-.53,2.04-.53,2.46s.15,.74,.46,.97c.31,.22,1.05,.37,2.24,.45l-.19,.63h-7.64l.19-.63h.46c1.13,0,1.94-.28,2.44-.85,.36-.41,.75-1.3,1.14-2.66l5.04-17.27c-.38-.39-.73-.65-1.08-.79-.34-.14-.97-.24-1.9-.32l.17-.63h5.76Z"/><path d="M348.7,71.81c.85-.38,1.55-.87,2.08-1.47,.41-.46,.62-.89,.62-1.3,0-.22-.03-.41-.1-.58-.05-.09-.21-.27-.48-.55s-.43-.46-.46-.56c-.08-.18-.12-.4-.12-.67,0-.49,.17-.91,.5-1.26,.34-.35,.73-.53,1.19-.53s.88,.19,1.24,.56c.36,.38,.54,.85,.54,1.42,0,1.01-.4,2.04-1.2,3.07-.8,1.04-1.95,1.84-3.47,2.41l-.34-.55Z"/></g><path d="M39.61,52.33l-3.38,11.97c-.23,.81-.34,1.29-.34,1.45,0,.18,.05,.33,.16,.44,.11,.11,.24,.17,.38,.17,.17,0,.38-.09,.61-.27,.65-.51,1.3-1.24,1.96-2.19l.6,.39c-.77,1.18-1.69,2.18-2.73,2.99-.77,.6-1.51,.91-2.22,.91-.47,0-.85-.14-1.14-.42-.3-.28-.44-.63-.44-1.05s.14-1.12,.43-2.1l2.22-7.65c.36-1.25,.55-2.04,.55-2.36,0-.25-.09-.46-.26-.61-.18-.16-.42-.24-.73-.24-.25,0-.77,.06-1.55,.19v-.67l5.89-.96Zm-.22-6.78c.48,0,.88,.17,1.21,.5s.5,.73,.5,1.21-.17,.87-.5,1.2c-.34,.34-.74,.5-1.2,.5s-.87-.17-1.2-.5-.5-.74-.5-1.2,.17-.88,.5-1.21c.33-.33,.73-.5,1.21-.5Z"/><path d="M254.71,57.68c0,1.71-.45,3.4-1.36,5.07-.91,1.67-2.17,3-3.78,3.98-1.62,.98-3.19,1.47-4.71,1.47s-2.83-.5-3.82-1.49c-.99-1-1.48-2.29-1.48-3.87,0-1.67,.48-3.35,1.44-5.04,.96-1.69,2.25-3.02,3.86-4,1.61-.98,3.17-1.47,4.67-1.47s2.74,.5,3.72,1.49c.97,.99,1.46,2.28,1.46,3.86Zm-2.84-1.18c0-1.06-.26-1.87-.78-2.43-.52-.56-1.19-.85-2.01-.85-1.67,0-3.21,1.2-4.62,3.6-1.41,2.4-2.11,4.78-2.11,7.15,0,1.08,.27,1.92,.82,2.5s1.24,.88,2.07,.88c1.61,0,3.11-1.19,4.52-3.58s2.11-4.81,2.11-7.27Z"/><g><path d="M441.28,57.68c0,1.71-.45,3.4-1.36,5.07-.91,1.67-2.17,3-3.78,3.98-1.62,.98-3.19,1.47-4.71,1.47s-2.83-.5-3.82-1.49c-.99-1-1.48-2.29-1.48-3.87,0-1.67,.48-3.35,1.44-5.04,.96-1.69,2.25-3.02,3.86-4,1.61-.98,3.17-1.47,4.67-1.47s2.74,.5,3.72,1.49c.97,.99,1.46,2.28,1.46,3.86Zm-2.84-1.18c0-1.06-.26-1.87-.78-2.43-.52-.56-1.19-.85-2.01-.85-1.67,0-3.21,1.2-4.62,3.6-1.41,2.4-2.11,4.78-2.11,7.15,0,1.08,.27,1.92,.82,2.5s1.24,.88,2.07,.88c1.61,0,3.11-1.19,4.52-3.58s2.11-4.81,2.11-7.27Z"/><path d="M449.44,51.01c.85-.38,1.55-.87,2.08-1.47,.41-.46,.62-.89,.62-1.3,0-.22-.03-.41-.1-.58-.05-.09-.21-.27-.48-.55s-.43-.46-.46-.56c-.08-.18-.12-.4-.12-.67,0-.49,.17-.91,.5-1.26,.34-.35,.73-.53,1.19-.53s.88,.19,1.24,.56c.36,.38,.54,.85,.54,1.42,0,1.01-.4,2.04-1.2,3.07-.8,1.04-1.95,1.84-3.47,2.41l-.34-.55Z"/></g></svg>