<?xml version="1.0" encoding="UTF-8"?><svg id="Layer_1" xmlns="http://www.w3.org/2000/svg" viewBox="0 0 1210 377"><defs><style>.cls-1{fill:#fff;}.cls-2{fill:#202020;}.cls-3{fill:#ccc;}</style></defs><g><rect class="cls-3" x=".5" y=".5" width="1209" height="376"/><path d="M1209,1V376H1V1H1209m1-1H0V377H1210V0h0Z"/></g><g><polygon class="cls-1" points="219.53 25.29 500.11 187.28 219.53 349.27 219.53 25.29"/><path d="M221.03,27.89L497.11,187.28,221.03,346.67V27.89m-3-5.2V351.87L503.11,187.28,218.03,22.69h0Z"/></g><g><polygon class="cls-1" points="689.92 25.29 970.5 187.28 689.92 349.27 689.92 25.29"/><path d="M691.42,27.89l276.08,159.39-276.08,159.39V27.89m-3-5.2V351.87l285.08-164.59L688.42,22.69h0Z"/></g><polygon class="cls-2" points="32.5 188.87 198.83 188.87 195.35 197.05 218.5 187.28 195.35 177.51 198.83 185.7 32.5 185.7 32.5 188.87"/><polygon class="cls-2" points="502 188.87 668.33 188.87 664.85 197.05 688 187.28 664.85 177.51 668.33 185.7 502 185.7 502 188.87"/><polygon class="cls-2" points="970 188.87 1136.33 188.87 1132.85 197.05 1156 187.28 1132.85 177.51 1136.33 185.7 970 185.7 970 188.87"/><path d="M296.19,157.1l5.13,44.79,32.28-44.79h13.58v1.52c-2.95,.19-4.69,.38-5.21,.57-.9,.36-1.73,1.07-2.48,2.13-.75,1.07-1.57,3.12-2.44,6.15l-10.29,35.27c-.6,2.05-.9,3.66-.9,4.84,0,1.07,.37,1.87,1.11,2.42,1.04,.79,2.68,1.19,4.92,1.19h.98l-.37,1.52h-23.42l.41-1.52h1.11c2.08,0,3.66-.3,4.76-.9,.85-.44,1.61-1.26,2.28-2.48,.67-1.22,1.61-3.92,2.81-8.1l9.19-32.24-32.44,45.24h-1.64l-5.21-45.24-9.93,34.41c-.85,2.93-1.27,4.9-1.27,5.91s.37,1.78,1.11,2.32,2.53,.9,5.37,1.09l-.45,1.52h-18.33l.45-1.52h1.11c2.71,0,4.66-.68,5.87-2.05,.88-.98,1.79-3.12,2.75-6.4l12.1-41.47c-.9-.93-1.76-1.56-2.58-1.89s-2.34-.59-4.55-.78l.41-1.52h13.82Z"/><g><path d="M777.52,157.1l5.13,44.79,32.28-44.79h13.58v1.52c-2.95,.19-4.69,.38-5.21,.57-.9,.36-1.73,1.07-2.48,2.13-.75,1.07-1.57,3.12-2.44,6.15l-10.29,35.27c-.6,2.05-.9,3.66-.9,4.84,0,1.07,.37,1.87,1.11,2.42,1.04,.79,2.68,1.19,4.92,1.19h.98l-.37,1.52h-23.42l.41-1.52h1.11c2.08,0,3.66-.3,4.76-.9,.85-.44,1.61-1.26,2.28-2.48,.67-1.22,1.61-3.92,2.81-8.1l9.19-32.24-32.44,45.24h-1.64l-5.21-45.24-9.93,34.41c-.85,2.93-1.27,4.9-1.27,5.91s.37,1.78,1.11,2.32,2.53,.9,5.37,1.09l-.45,1.52h-18.33l.45-1.52h1.11c2.71,0,4.66-.68,5.87-2.05,.88-.98,1.79-3.12,2.75-6.4l12.1-41.47c-.9-.93-1.76-1.56-2.58-1.89s-2.34-.59-4.55-.78l.41-1.52h13.82Z"/><path d="M837.32,172.44c2.05-.9,3.72-2.08,5-3.53,.98-1.09,1.48-2.13,1.48-3.12,0-.52-.08-.98-.25-1.39-.11-.22-.49-.66-1.15-1.31s-1.03-1.11-1.11-1.35c-.19-.44-.29-.97-.29-1.6,0-1.18,.4-2.19,1.21-3.04,.81-.85,1.76-1.27,2.85-1.27s2.11,.45,2.97,1.35,1.29,2.04,1.29,3.4c0,2.43-.96,4.9-2.87,7.38-1.91,2.49-4.69,4.42-8.33,5.78l-.82-1.31Z"/></g><path d="M95.11,125.66l-8.12,28.75c-.55,1.94-.82,3.1-.82,3.49,0,.44,.13,.79,.39,1.07,.26,.27,.57,.41,.92,.41,.41,0,.9-.22,1.48-.66,1.56-1.23,3.13-2.98,4.72-5.25l1.44,.94c-1.86,2.84-4.05,5.24-6.56,7.18-1.86,1.45-3.64,2.17-5.33,2.17-1.12,0-2.04-.33-2.75-1-.71-.67-1.07-1.51-1.07-2.52s.34-2.69,1.03-5.04l5.33-18.38c.88-3.01,1.31-4.89,1.31-5.66,0-.6-.21-1.09-.64-1.48-.42-.38-1-.57-1.74-.57-.6,0-1.85,.15-3.73,.45v-1.6l14.15-2.3Zm-.53-16.28c1.15,0,2.12,.4,2.91,1.19,.79,.79,1.19,1.76,1.19,2.91s-.4,2.09-1.21,2.89-1.77,1.21-2.89,1.21-2.09-.4-2.89-1.21c-.81-.81-1.21-1.77-1.21-2.89s.4-2.12,1.19-2.91,1.76-1.19,2.91-1.19Z"/><path d="M611.63,138.5c0,4.1-1.09,8.16-3.26,12.18s-5.2,7.21-9.08,9.56c-3.88,2.35-7.66,3.53-11.32,3.53s-6.8-1.2-9.17-3.59c-2.37-2.39-3.55-5.49-3.55-9.29,0-4.02,1.15-8.05,3.47-12.1,2.31-4.05,5.4-7.25,9.27-9.6,3.87-2.35,7.61-3.53,11.22-3.53s6.58,1.19,8.92,3.57,3.51,5.47,3.51,9.27Zm-6.81-2.83c0-2.54-.62-4.49-1.87-5.84s-2.85-2.03-4.82-2.03c-4.02,0-7.72,2.88-11.09,8.63-3.38,5.76-5.07,11.48-5.07,17.17,0,2.6,.66,4.6,1.97,6.01,1.31,1.41,2.97,2.11,4.96,2.11,3.86,0,7.47-2.86,10.85-8.59,3.38-5.73,5.07-11.55,5.07-17.45Z"/><g><path d="M1059.63,138.5c0,4.1-1.09,8.16-3.26,12.18s-5.2,7.21-9.08,9.56c-3.88,2.35-7.66,3.53-11.32,3.53s-6.8-1.2-9.17-3.59c-2.37-2.39-3.55-5.49-3.55-9.29,0-4.02,1.16-8.05,3.47-12.1,2.31-4.05,5.4-7.25,9.27-9.6,3.87-2.35,7.61-3.53,11.22-3.53s6.58,1.19,8.92,3.57,3.51,5.47,3.51,9.27Zm-6.81-2.83c0-2.54-.62-4.49-1.87-5.84s-2.85-2.03-4.82-2.03c-4.02,0-7.72,2.88-11.09,8.63-3.38,5.76-5.07,11.48-5.07,17.17,0,2.6,.66,4.6,1.97,6.01,1.31,1.41,2.97,2.11,4.96,2.11,3.86,0,7.47-2.86,10.85-8.59,3.38-5.73,5.07-11.55,5.07-17.45Z"/><path d="M1079.24,122.5c2.05-.9,3.72-2.08,5-3.53,.98-1.09,1.48-2.13,1.48-3.12,0-.52-.08-.98-.25-1.39-.11-.22-.49-.66-1.15-1.31s-1.03-1.11-1.11-1.35c-.19-.44-.29-.97-.29-1.6,0-1.18,.4-2.19,1.21-3.04,.81-.85,1.76-1.27,2.85-1.27s2.11,.45,2.97,1.35,1.29,2.04,1.29,3.4c0,2.43-.96,4.9-2.87,7.38-1.91,2.49-4.69,4.42-8.33,5.78l-.82-1.31Z"/></g></svg>