<?xml version="1.0" encoding="UTF-8"?><svg id="Layer_1" xmlns="http://www.w3.org/2000/svg" width="503.12" height="162" viewBox="0 0 503.12 162"><defs><style>.cls-1{fill:#fff;}.cls-2{stroke-dasharray:0 0 11.4 11.4;}.cls-2,.cls-3{fill:none;stroke:#000;stroke-miterlimit:10;stroke-width:3px;}.cls-4{fill:#202020;}.cls-5{fill:#ccc;}</style></defs><g><rect class="cls-5" x=".5" y=".5" width="502.12" height="161"/><path d="M502.12,1V161H1V1H502.12m1-1H0V162H503.12V0h0Z"/></g><g><polygon class="cls-1" points="92.53 12.91 207.06 79.03 92.53 145.15 92.53 12.91"/><path d="M94.03,15.51l110.03,63.52-110.03,63.52V15.51m-3-5.2V147.75l119.03-68.72L91.03,10.31h0Z"/></g><g><polygon class="cls-1" points="406.46 79.03 287.43 10.31 287.43 147.75 406.46 79.03"/><g><polyline class="cls-3" points="401.26 82.03 406.46 79.03 401.26 76.03"/><line class="cls-2" x1="391.39" y1="70.33" x2="297.57" y2="16.16"/><polyline class="cls-3" points="292.63 13.31 287.43 10.31 287.43 16.31"/><line class="cls-2" x1="287.43" y1="27.71" x2="287.43" y2="136.05"/><polyline class="cls-3" points="287.43 141.75 287.43 147.75 292.63 144.75"/><line class="cls-2" x1="302.51" y1="139.05" x2="396.33" y2="84.88"/></g></g><polygon class="cls-4" points="13.57 80.62 71.56 80.62 68.08 88.8 91.23 79.03 68.08 69.26 71.56 77.44 13.57 77.44 13.57 80.62"/><polygon class="cls-4" points="209.6 80.62 267.59 80.62 264.11 88.8 287.26 79.03 264.11 69.26 267.59 77.44 209.6 77.44 209.6 80.62"/><polygon class="cls-4" points="405 80.62 462.99 80.62 459.51 88.8 482.66 79.03 459.51 69.26 462.99 77.44 405 77.44 405 80.62"/><g><path d="M123.67,66.43l2.14,18.7,13.48-18.7h5.67v.63c-1.23,.08-1.96,.16-2.18,.24-.38,.15-.72,.45-1.04,.89-.31,.44-.65,1.3-1.02,2.57l-4.3,14.73c-.25,.86-.38,1.53-.38,2.02,0,.45,.15,.78,.46,1.01,.43,.33,1.12,.5,2.06,.5h.41l-.15,.63h-9.78l.17-.63h.46c.87,0,1.53-.13,1.99-.38,.35-.18,.67-.53,.95-1.04,.28-.51,.67-1.64,1.17-3.38l3.84-13.46-13.55,18.89h-.69l-2.17-18.89-4.14,14.37c-.35,1.22-.53,2.04-.53,2.47s.15,.75,.46,.97c.31,.22,1.06,.37,2.24,.45l-.19,.63h-7.65l.19-.63h.46c1.13,0,1.95-.29,2.45-.86,.37-.41,.75-1.3,1.15-2.67l5.05-17.31c-.38-.39-.74-.65-1.08-.79-.34-.14-.98-.25-1.9-.33l.17-.63h5.77Z"/><path d="M148.64,72.83c.86-.38,1.55-.87,2.09-1.47,.41-.46,.62-.89,.62-1.3,0-.22-.03-.41-.1-.58-.05-.09-.21-.27-.48-.55s-.43-.46-.46-.57c-.08-.18-.12-.4-.12-.67,0-.49,.17-.91,.51-1.27,.34-.35,.73-.53,1.19-.53s.88,.19,1.24,.56c.36,.38,.54,.85,.54,1.42,0,1.02-.4,2.04-1.2,3.08-.8,1.04-1.96,1.84-3.48,2.41l-.34-.55Z"/></g><path d="M321.3,84.17h-.7c.08-1.44,.26-2.63,.54-3.57,.28-.94,.86-2.25,1.74-3.93,.69-1.29,1.13-2.28,1.34-2.97,.21-.69,.31-1.39,.31-2.1,0-1.45-.39-2.6-1.16-3.46-.77-.86-1.72-1.28-2.83-1.28-.99,0-1.78,.23-2.35,.7-.57,.47-.86,.98-.86,1.52,0,.42,.17,.94,.51,1.56,.34,.62,.51,1.08,.51,1.4,0,.41-.13,.76-.39,1.04-.26,.28-.58,.42-.96,.42-.48,0-.92-.24-1.31-.71-.39-.47-.59-1.13-.59-1.98,0-1.29,.55-2.43,1.66-3.43,1.11-.99,2.61-1.49,4.5-1.49,2.35,0,4.08,.69,5.19,2.06,.82,1,1.23,2.12,1.23,3.34,0,.83-.19,1.69-.56,2.57-.37,.88-1.08,1.91-2.12,3.1-1.66,1.87-2.67,3.2-3.04,3.98-.37,.78-.6,1.86-.68,3.23Zm-.24,2.12c.54,0,.99,.19,1.36,.56s.56,.82,.56,1.36-.19,.97-.57,1.34c-.38,.37-.83,.56-1.35,.56s-.97-.19-1.34-.56c-.37-.37-.56-.82-.56-1.34s.19-.99,.56-1.36c.37-.37,.82-.56,1.34-.56Z"/><path d="M39.71,53.3l-3.39,12c-.23,.81-.34,1.3-.34,1.46,0,.18,.05,.33,.16,.45,.11,.11,.24,.17,.39,.17,.17,0,.38-.09,.62-.27,.65-.51,1.31-1.24,1.97-2.19l.6,.39c-.78,1.19-1.69,2.19-2.74,3-.78,.6-1.52,.91-2.23,.91-.47,0-.85-.14-1.15-.42-.3-.28-.45-.63-.45-1.05s.14-1.12,.43-2.11l2.23-7.67c.37-1.26,.55-2.04,.55-2.36,0-.25-.09-.46-.27-.62-.18-.16-.42-.24-.73-.24-.25,0-.77,.06-1.56,.19v-.67l5.91-.96Zm-.22-6.8c.48,0,.88,.17,1.22,.5,.33,.33,.5,.74,.5,1.22s-.17,.87-.5,1.21c-.34,.34-.74,.5-1.21,.5s-.87-.17-1.21-.5c-.34-.34-.5-.74-.5-1.21s.17-.88,.5-1.22c.33-.33,.74-.5,1.22-.5Z"/><path d="M255.37,58.66c0,1.71-.45,3.41-1.36,5.09s-2.17,3.01-3.79,3.99c-1.62,.98-3.2,1.47-4.73,1.47s-2.84-.5-3.83-1.5c-.99-1-1.48-2.29-1.48-3.88,0-1.68,.48-3.36,1.45-5.05,.96-1.69,2.25-3.03,3.87-4.01s3.18-1.47,4.68-1.47,2.75,.5,3.73,1.49,1.46,2.28,1.46,3.87Zm-2.84-1.18c0-1.06-.26-1.88-.78-2.44-.52-.57-1.19-.85-2.01-.85-1.68,0-3.22,1.2-4.63,3.6-1.41,2.4-2.12,4.79-2.12,7.17,0,1.08,.27,1.92,.82,2.51,.55,.59,1.24,.88,2.07,.88,1.61,0,3.12-1.2,4.53-3.59,1.41-2.39,2.11-4.82,2.11-7.29Z"/><g><path d="M442.42,58.66c0,1.71-.45,3.41-1.36,5.09s-2.17,3.01-3.79,3.99c-1.62,.98-3.2,1.47-4.73,1.47s-2.84-.5-3.83-1.5c-.99-1-1.48-2.29-1.48-3.88,0-1.68,.48-3.36,1.45-5.05,.96-1.69,2.25-3.03,3.87-4.01s3.18-1.47,4.68-1.47,2.75,.5,3.73,1.49,1.46,2.28,1.46,3.87Zm-2.84-1.18c0-1.06-.26-1.88-.78-2.44-.52-.57-1.19-.85-2.01-.85-1.68,0-3.22,1.2-4.63,3.6-1.41,2.4-2.12,4.79-2.12,7.17,0,1.08,.27,1.92,.82,2.51,.55,.59,1.24,.88,2.07,.88,1.61,0,3.12-1.2,4.53-3.59,1.41-2.39,2.11-4.82,2.11-7.29Z"/><path d="M450.61,51.98c.86-.38,1.55-.87,2.09-1.47,.41-.46,.62-.89,.62-1.3,0-.22-.03-.41-.1-.58-.05-.09-.21-.27-.48-.55s-.43-.46-.46-.57c-.08-.18-.12-.4-.12-.67,0-.49,.17-.91,.51-1.27,.34-.35,.73-.53,1.19-.53s.88,.19,1.24,.56c.36,.38,.54,.85,.54,1.42,0,1.02-.4,2.04-1.2,3.08-.8,1.04-1.96,1.84-3.48,2.41l-.34-.55Z"/></g><rect class="cls-3" x="63.26" y="3.13" width="355.31" height="152.4"/><path d="M33.73,120.29l2.14,18.7,13.48-18.7h5.67v.63c-1.23,.08-1.96,.16-2.18,.24-.38,.15-.72,.45-1.04,.89-.31,.45-.65,1.3-1.02,2.57l-4.3,14.73c-.25,.86-.38,1.53-.38,2.02,0,.45,.15,.78,.46,1.01,.43,.33,1.12,.5,2.06,.5h.41l-.15,.63h-9.78l.17-.63h.46c.87,0,1.53-.12,1.99-.38,.35-.18,.67-.53,.95-1.04,.28-.51,.67-1.63,1.17-3.38l3.84-13.46-13.55,18.89h-.69l-2.17-18.89-4.14,14.37c-.35,1.22-.53,2.04-.53,2.47s.15,.74,.46,.97c.31,.22,1.06,.38,2.24,.45l-.19,.63h-7.65l.19-.63h.46c1.13,0,1.95-.29,2.45-.86,.37-.41,.75-1.3,1.15-2.67l5.05-17.31c-.38-.39-.74-.65-1.08-.79-.34-.14-.98-.25-1.9-.33l.17-.63h5.77Z"/></svg>