<svg xmlns="http://www.w3.org/2000/svg" xmlns:xlink="http://www.w3.org/1999/xlink" width="500" zoomAndPan="magnify" viewBox="0 0 375 374.999991" height="500" preserveAspectRatio="xMidYMid meet" version="1.0"><defs><clipPath id="0dc03abead"><path d="M 107 79 L 208 79 L 208 181 L 107 181 Z M 107 79 " clip-rule="nonzero"/></clipPath><clipPath id="a8db864ebf"><path d="M 89.125 254.597656 L 114.835938 72.800781 L 306.199219 99.867188 L 280.488281 281.664062 Z M 89.125 254.597656 " clip-rule="nonzero"/></clipPath><clipPath id="a7748e6ddc"><path d="M 89.125 254.597656 L 114.835938 72.800781 L 306.199219 99.867188 L 280.488281 281.664062 Z M 89.125 254.597656 " clip-rule="nonzero"/></clipPath><clipPath id="40744be06d"><path d="M 89.125 254.597656 L 114.835938 72.800781 L 306.199219 99.867188 L 280.488281 281.664062 Z M 89.125 254.597656 " clip-rule="nonzero"/></clipPath><clipPath id="f914eab84c"><path d="M 141 113 L 173 113 L 173 146 L 141 146 Z M 141 113 " clip-rule="nonzero"/></clipPath><clipPath id="48edd4f396"><path d="M 89.125 254.597656 L 114.835938 72.800781 L 306.199219 99.867188 L 280.488281 281.664062 Z M 89.125 254.597656 " clip-rule="nonzero"/></clipPath><clipPath id="ce9d0b3873"><path d="M 89.125 254.597656 L 114.835938 72.800781 L 306.199219 99.867188 L 280.488281 281.664062 Z M 89.125 254.597656 " clip-rule="nonzero"/></clipPath><clipPath id="53954893dd"><path d="M 89.125 254.597656 L 114.835938 72.800781 L 306.199219 99.867188 L 280.488281 281.664062 Z M 89.125 254.597656 " clip-rule="nonzero"/></clipPath><clipPath id="2f152358f6"><path d="M 162 144 L 289 144 L 289 272 L 162 272 Z M 162 144 " clip-rule="nonzero"/></clipPath><clipPath id="ab8568eb48"><path d="M 89.125 254.597656 L 114.835938 72.800781 L 306.199219 99.867188 L 280.488281 281.664062 Z M 89.125 254.597656 " clip-rule="nonzero"/></clipPath><clipPath id="148b62cceb"><path d="M 89.125 254.597656 L 114.835938 72.800781 L 306.199219 99.867188 L 280.488281 281.664062 Z M 89.125 254.597656 " clip-rule="nonzero"/></clipPath><clipPath id="dfdacad933"><path d="M 89.125 254.597656 L 114.835938 72.800781 L 306.199219 99.867188 L 280.488281 281.664062 Z M 89.125 254.597656 " clip-rule="nonzero"/></clipPath><clipPath id="f4136556b6"><path d="M 205 187 L 247 187 L 247 229 L 205 229 Z M 205 187 " clip-rule="nonzero"/></clipPath><clipPath id="9cafd204b6"><path d="M 89.125 254.597656 L 114.835938 72.800781 L 306.199219 99.867188 L 280.488281 281.664062 Z M 89.125 254.597656 " clip-rule="nonzero"/></clipPath><clipPath id="0b10ebb184"><path d="M 89.125 254.597656 L 114.835938 72.800781 L 306.199219 99.867188 L 280.488281 281.664062 Z M 89.125 254.597656 " clip-rule="nonzero"/></clipPath><clipPath id="697f185a59"><path d="M 89.125 254.597656 L 114.835938 72.800781 L 306.199219 99.867188 L 280.488281 281.664062 Z M 89.125 254.597656 " clip-rule="nonzero"/></clipPath><clipPath id="98e6e3569f"><path d="M 182.746094 166.859375 L 264 166.859375 L 264 249 L 182.746094 249 Z M 182.746094 166.859375 " clip-rule="nonzero"/></clipPath><clipPath id="96396babf3"><path d="M 223.316406 166.859375 C 200.910156 166.859375 182.746094 185.230469 182.746094 207.890625 C 182.746094 230.554688 200.910156 248.925781 223.316406 248.925781 C 245.71875 248.925781 263.882812 230.554688 263.882812 207.890625 C 263.882812 185.230469 245.71875 166.859375 223.316406 166.859375 " clip-rule="nonzero"/></clipPath><clipPath id="af6c12a8c8"><path d="M 130.863281 104.140625 L 181.863281 104.140625 L 181.863281 155.140625 L 130.863281 155.140625 Z M 130.863281 104.140625 " clip-rule="nonzero"/></clipPath></defs><g clip-path="url(#0dc03abead)"><g clip-path="url(#a8db864ebf)"><g clip-path="url(#a7748e6ddc)"><g clip-path="url(#40744be06d)"><path fill="#000000" d="M 133.636719 85.515625 L 133.441406 85.488281 C 129.097656 87.910156 125.257812 91.007812 121.53125 94.730469 L 121.730469 94.757812 C 123.800781 98.492188 126.070312 102.253906 128.363281 105.816406 C 127.382812 107.09375 126.628906 108.199219 125.871094 109.308594 C 124.863281 110.78125 123.855469 112.257812 123.207031 113.988281 C 122.929688 114.554688 122.648438 115.125 122.5625 115.71875 C 118.195312 115.503906 113.824219 115.292969 109.425781 115.277344 C 108.753906 117.207031 108.472656 119.191406 107.96875 121.34375 L 107.519531 124.519531 C 107.4375 126.53125 107.183594 128.316406 107.324219 130.15625 C 111.355469 131.335938 115.613281 132.339844 119.898438 133.148438 C 119.785156 133.941406 119.898438 134.566406 119.984375 135.386719 C 119.953125 135.585938 119.925781 135.785156 120.09375 136.011719 C 120.261719 137.652344 120.820312 139.351562 121.382812 141.046875 C 121.773438 142.519531 122.195312 143.792969 122.808594 145.09375 C 119.585938 148.078125 116.589844 150.894531 113.367188 153.878906 L 113.144531 154.046875 C 113.621094 154.925781 114.09375 155.800781 114.597656 156.480469 C 115.382812 158.007812 116.390625 159.363281 117.425781 160.523438 C 118.742188 162.53125 120.507812 164.195312 122.246094 166.058594 L 122.273438 165.863281 C 125.96875 163.753906 129.5 161.421875 133.226562 159.113281 C 134.289062 160.074219 135.550781 161.0625 136.644531 161.824219 C 138.097656 162.839844 139.78125 163.683594 141.292969 164.300781 C 142.019531 164.808594 142.777344 165.121094 143.363281 165.203125 C 143.140625 169.621094 142.914062 174.042969 142.914062 178.292969 C 144.816406 178.964844 146.75 179.441406 148.90625 179.746094 C 151.847656 180.164062 154.816406 180.378906 157.648438 180.171875 C 158.628906 176.0625 159.609375 171.953125 160.617188 167.644531 C 161.402344 167.753906 162.214844 167.667969 162.859375 167.351562 C 164.679688 167.207031 166.332031 166.832031 168.210938 166.289062 C 169.695312 165.6875 171.152344 165.289062 172.46875 164.460938 C 175.410156 167.710938 178.152344 170.933594 181.121094 173.980469 C 185.660156 171.589844 189.695312 168.515625 193.222656 164.765625 L 193.027344 164.738281 C 190.929688 161.203125 188.660156 157.445312 186.363281 153.882812 L 186.390625 153.683594 C 187.121094 152.773438 187.878906 151.667969 188.605469 150.757812 C 189.644531 149.082031 190.707031 147.210938 191.351562 145.480469 C 191.660156 144.714844 191.941406 144.148438 192.222656 143.582031 C 196.394531 143.765625 200.765625 143.980469 205.160156 143.992188 C 205.609375 142.234375 206.058594 140.476562 206.339844 138.496094 L 206.761719 135.519531 C 207.070312 133.335938 207.183594 131.125 207.097656 128.890625 C 203.035156 127.910156 198.78125 126.902344 194.523438 125.894531 C 194.410156 125.273438 194.296875 124.648438 194.1875 124.027344 C 194.046875 122.1875 193.683594 120.515625 193.125 118.816406 C 192.730469 117.347656 192.144531 115.847656 191.359375 114.320312 C 191.554688 114.347656 191.554688 114.347656 191.582031 114.148438 C 194.777344 111.363281 198 108.378906 201.027344 105.367188 C 200.71875 104.714844 200.410156 104.066406 199.933594 103.1875 C 199.121094 101.859375 198.113281 100.503906 197.078125 99.34375 C 195.566406 97.308594 193.855469 95.246094 191.925781 93.355469 C 188.199219 95.660156 184.472656 97.964844 180.941406 100.300781 L 180.746094 100.273438 C 179.851562 99.539062 178.757812 98.777344 177.667969 98.015625 C 176.183594 97.199219 174.726562 96.183594 173.214844 95.566406 C 173.015625 95.535156 172.820312 95.507812 172.847656 95.3125 C 172.066406 95.199219 171.503906 94.917969 171.140625 94.664062 C 171.367188 90.246094 171.589844 85.824219 171.789062 81.601562 C 169.882812 80.929688 167.921875 80.652344 165.988281 80.175781 L 162.65625 79.703125 C 160.667969 79.625 158.707031 79.347656 156.691406 79.46875 C 155.707031 83.578125 154.699219 87.886719 153.691406 92.195312 C 153.074219 92.3125 152.457031 92.425781 151.871094 92.34375 C 150.019531 92.6875 148.171875 93.035156 146.292969 93.578125 C 145.035156 94.007812 143.550781 94.605469 142.289062 95.035156 C 139.515625 92.011719 136.578125 88.765625 133.636719 85.515625 Z M 142.417969 140.785156 C 139.199219 136.6875 138.050781 132.074219 138.949219 127.140625 C 139.480469 121.957031 141.835938 118.039062 146.09375 114.796875 C 150.128906 111.726562 154.695312 110.550781 159.597656 111.242188 C 164.695312 111.964844 168.558594 114.332031 171.777344 118.429688 C 174.773438 122.699219 175.949219 127.113281 175.222656 132.273438 C 174.519531 137.230469 172.136719 141.347656 168.101562 144.417969 C 163.871094 147.460938 159.503906 148.664062 154.40625 147.945312 C 149.503906 147.25 145.441406 144.855469 142.417969 140.785156 Z M 142.417969 140.785156 " fill-opacity="1" fill-rule="nonzero"/></g></g></g></g><g clip-path="url(#f914eab84c)"><g clip-path="url(#48edd4f396)"><g clip-path="url(#ce9d0b3873)"><g clip-path="url(#53954893dd)"><path fill="#000000" d="M 141.523438 127.304688 C 140.90625 131.667969 141.972656 135.460938 144.464844 139.050781 C 147.179688 142.472656 150.484375 144.558594 154.796875 145.167969 C 159.113281 145.777344 162.867188 144.691406 166.421875 142.15625 C 170.007812 139.425781 172.082031 136.078125 172.699219 131.714844 C 173.316406 127.347656 172.253906 123.554688 169.566406 119.9375 C 166.878906 116.320312 163.542969 114.433594 159.230469 113.824219 C 154.917969 113.210938 151.191406 114.101562 147.605469 116.832031 C 144.214844 119.589844 142.140625 122.941406 141.523438 127.304688 Z M 147.601562 136.664062 C 145.78125 133.976562 144.996094 131.03125 145.445312 127.859375 C 145.894531 124.683594 147.464844 122.074219 149.957031 120 C 152.648438 117.949219 155.335938 117.320312 158.671875 117.789062 C 162.003906 118.261719 164.609375 119.640625 166.429688 122.328125 C 168.445312 125.039062 169.226562 127.984375 168.777344 131.160156 C 168.328125 134.332031 166.761719 136.945312 164.070312 138.992188 C 161.605469 140.867188 158.691406 141.671875 155.359375 141.199219 C 152.222656 140.757812 149.644531 139.175781 147.601562 136.664062 Z M 147.601562 136.664062 " fill-opacity="1" fill-rule="nonzero"/></g></g></g></g><g clip-path="url(#2f152358f6)"><g clip-path="url(#ab8568eb48)"><g clip-path="url(#148b62cceb)"><g clip-path="url(#dfdacad933)"><path fill="#000000" d="M 166.46875 182.835938 C 165.964844 183.574219 165.683594 184.144531 165.601562 184.738281 C 164.675781 187.035156 163.945312 189.359375 163.21875 191.6875 C 168.203125 194.617188 173.050781 197.125 177.894531 199.628906 L 177.390625 203.199219 C 177.25 205.609375 177.136719 207.820312 177.21875 210.054688 C 177.164062 211.871094 177.5 213.738281 177.835938 215.605469 C 172.875 218.144531 167.890625 220.878906 163.125 223.441406 L 162.902344 223.613281 C 163.125 224.859375 163.351562 226.105469 163.796875 227.179688 C 164.300781 229.273438 165.03125 231.199219 165.953125 233.152344 C 166.933594 236.121094 168.332031 238.949219 170.152344 241.636719 L 170.347656 241.664062 C 175.585938 239.976562 180.796875 238.488281 186.035156 236.800781 C 187.210938 238.382812 188.222656 239.738281 189.621094 241.152344 C 190.964844 242.960938 192.730469 244.625 194.523438 246.09375 C 195.222656 246.800781 195.949219 247.308594 196.875 247.84375 C 195.109375 253.261719 193.34375 258.675781 191.773438 264.121094 C 193.984375 265.445312 196.199219 266.769531 198.632812 267.921875 C 202.441406 269.269531 206.054688 270.59375 209.726562 271.515625 L 217.796875 256.875 L 220.542969 257.261719 C 222.699219 257.566406 225.078125 257.699219 227.515625 257.4375 C 229.503906 257.515625 231.550781 257.199219 233.59375 256.882812 C 236.085938 261.886719 238.605469 266.695312 241.292969 271.730469 C 247.511719 270.183594 253.480469 267.585938 259.136719 264.339844 L 259.167969 264.140625 C 257.515625 258.847656 256.058594 253.582031 254.4375 248.09375 C 255.78125 247.070312 256.929688 246.015625 258.273438 244.992188 C 260.097656 243.429688 261.777344 241.441406 263.484375 239.253906 C 263.960938 238.714844 264.46875 237.976562 265.167969 237.265625 C 270.320312 239.007812 275.699219 240.578125 281.078125 242.148438 C 282.367188 240.105469 283.457031 238.03125 284.382812 235.734375 C 284.664062 235.167969 285.222656 234.03125 285.898438 232.105469 C 287.074219 229.4375 287.859375 226.714844 288.617188 224.191406 C 283.628906 221.261719 278.8125 218.558594 273.773438 216.023438 L 274.136719 213.445312 C 274.472656 211.0625 274.585938 208.851562 274.503906 206.617188 C 274.390625 204.574219 274.082031 202.507812 273.777344 200.441406 C 273.777344 200.441406 273.972656 200.46875 274 200.269531 C 278.957031 197.734375 283.945312 195 288.902344 192.464844 C 288.457031 191.386719 288.203125 190.339844 287.921875 189.492188 C 287.417969 187.398438 286.691406 185.472656 285.964844 183.550781 C 284.621094 180.324219 283.050781 177.269531 281.261719 174.386719 C 275.855469 175.847656 270.617188 177.535156 265.179688 179.191406 C 264.171875 177.835938 263.136719 176.679688 262.128906 175.320312 C 260.5625 173.683594 258.796875 172.015625 257.199219 170.578125 C 257.003906 170.550781 256.835938 170.324219 256.640625 170.296875 C 256.109375 169.816406 255.378906 169.308594 254.847656 168.828125 C 256.613281 163.410156 258.183594 157.96875 259.949219 152.550781 C 257.738281 151.226562 255.496094 150.101562 253.058594 148.945312 C 252.5 148.664062 251.9375 148.382812 251.183594 148.074219 C 250.621094 147.792969 250.035156 147.710938 249.304688 147.203125 C 246.8125 146.445312 244.347656 145.488281 242.023438 144.957031 C 239.136719 149.8125 236.617188 154.917969 233.925781 159.796875 L 231.574219 159.464844 C 229.21875 159.132812 226.644531 158.972656 224.207031 159.234375 C 222.414062 159.183594 220.5625 159.527344 218.742188 159.675781 C 216.25 154.667969 213.5625 149.632812 210.847656 144.796875 L 210.875 144.601562 C 204.65625 146.148438 198.71875 148.546875 193.003906 152.191406 C 194.429688 157.652344 196.082031 162.945312 197.734375 168.238281 C 196.164062 169.433594 194.59375 170.625 193.222656 171.847656 C 191.597656 173.441406 189.972656 175.03125 188.710938 176.878906 C 188.039062 177.390625 187.535156 178.128906 187.058594 178.667969 C 181.679688 177.097656 176.332031 175.328125 170.953125 173.757812 C 169.636719 176 168.292969 178.441406 167.140625 180.910156 C 166.863281 181.476562 166.554688 182.242188 166.46875 182.835938 Z M 234.582031 230.109375 C 228.417969 232.675781 222.421875 232.636719 216.402344 229.964844 C 210.351562 227.492188 206.179688 223.054688 203.660156 216.832031 C 201.308594 210.832031 201.394531 204.570312 203.832031 198.644531 C 206.496094 192.546875 210.726562 188.085938 216.859375 185.714844 C 223.023438 183.144531 229.019531 183.183594 235.039062 185.859375 C 241.089844 188.332031 245.261719 192.765625 247.613281 198.765625 C 250.105469 205.1875 250.046875 211.25 247.414062 217.152344 C 244.945312 223.277344 240.519531 227.710938 234.582031 230.109375 Z M 234.582031 230.109375 " fill-opacity="1" fill-rule="nonzero"/></g></g></g></g><g clip-path="url(#f4136556b6)"><g clip-path="url(#9cafd204b6)"><g clip-path="url(#0b10ebb184)"><g clip-path="url(#697f185a59)"><path fill="#000000" d="M 217.886719 226.53125 C 222.957031 228.867188 228.140625 228.996094 233.238281 226.882812 L 233.265625 226.683594 C 238.558594 224.601562 242.089844 220.851562 244.417969 215.714844 C 246.546875 210.554688 246.6875 205.3125 244.644531 199.964844 C 242.40625 194.589844 238.902344 191.058594 233.835938 188.722656 L 233.636719 188.695312 C 228.542969 186.558594 223.332031 186.628906 218.234375 188.742188 C 212.9375 190.824219 209.210938 194.546875 207.082031 199.710938 C 204.753906 204.84375 204.78125 210.3125 206.855469 215.460938 C 208.898438 220.808594 212.59375 224.367188 217.886719 226.53125 Z M 211.726562 213.519531 C 210.105469 209.445312 210.050781 205.59375 211.785156 201.792969 C 213.328125 197.964844 216.128906 195.121094 220.164062 193.464844 C 224.003906 191.785156 227.980469 191.941406 231.761719 193.488281 C 235.515625 195.234375 238.3125 198.058594 239.769531 201.90625 L 239.964844 201.933594 C 241.394531 205.980469 241.449219 209.832031 239.710938 213.632812 C 238.140625 217.660156 235.367188 220.304688 231.332031 221.960938 C 227.523438 223.445312 223.714844 223.511719 219.738281 221.9375 C 215.984375 220.191406 213.378906 217.398438 211.726562 213.519531 Z M 211.726562 213.519531 " fill-opacity="1" fill-rule="nonzero"/></g></g></g></g><g clip-path="url(#98e6e3569f)"><g clip-path="url(#96396babf3)"><path fill="#000000" d="M 182.746094 166.859375 L 263.324219 166.859375 L 263.324219 249.804688 L 182.746094 249.804688 Z M 182.746094 166.859375 " fill-opacity="1" fill-rule="nonzero"/></g></g><g clip-path="url(#af6c12a8c8)"><path fill="#000000" d="M 181.863281 129.640625 C 181.863281 130.476562 181.820312 131.308594 181.738281 132.140625 C 181.65625 132.972656 181.535156 133.796875 181.371094 134.617188 C 181.210938 135.433594 181.007812 136.246094 180.765625 137.042969 C 180.523438 137.84375 180.242188 138.628906 179.921875 139.398438 C 179.601562 140.171875 179.246094 140.925781 178.851562 141.660156 C 178.457031 142.398438 178.027344 143.113281 177.566406 143.808594 C 177.101562 144.503906 176.605469 145.171875 176.074219 145.816406 C 175.542969 146.464844 174.984375 147.082031 174.394531 147.671875 C 173.804688 148.261719 173.183594 148.824219 172.539062 149.351562 C 171.894531 149.882812 171.222656 150.378906 170.527344 150.84375 C 169.835938 151.308594 169.121094 151.738281 168.382812 152.128906 C 167.644531 152.523438 166.890625 152.878906 166.121094 153.199219 C 165.347656 153.519531 164.5625 153.800781 163.765625 154.042969 C 162.964844 154.285156 162.15625 154.488281 161.335938 154.652344 C 160.519531 154.8125 159.691406 154.9375 158.863281 155.019531 C 158.03125 155.101562 157.199219 155.140625 156.363281 155.140625 C 155.527344 155.140625 154.695312 155.101562 153.863281 155.019531 C 153.03125 154.9375 152.207031 154.8125 151.386719 154.652344 C 150.566406 154.488281 149.757812 154.285156 148.960938 154.042969 C 148.160156 153.800781 147.375 153.519531 146.605469 153.199219 C 145.832031 152.878906 145.078125 152.523438 144.339844 152.128906 C 143.605469 151.738281 142.890625 151.308594 142.195312 150.84375 C 141.5 150.378906 140.832031 149.882812 140.183594 149.351562 C 139.539062 148.824219 138.921875 148.261719 138.332031 147.671875 C 137.742188 147.082031 137.179688 146.464844 136.648438 145.816406 C 136.121094 145.171875 135.625 144.503906 135.160156 143.808594 C 134.695312 143.113281 134.265625 142.398438 133.875 141.660156 C 133.480469 140.925781 133.121094 140.171875 132.804688 139.398438 C 132.484375 138.628906 132.203125 137.84375 131.960938 137.042969 C 131.71875 136.246094 131.515625 135.433594 131.351562 134.617188 C 131.1875 133.796875 131.066406 132.972656 130.984375 132.140625 C 130.902344 131.308594 130.863281 130.476562 130.863281 129.640625 C 130.863281 128.804688 130.902344 127.972656 130.984375 127.140625 C 131.066406 126.308594 131.1875 125.484375 131.351562 124.667969 C 131.515625 123.847656 131.71875 123.039062 131.960938 122.238281 C 132.203125 121.441406 132.484375 120.652344 132.804688 119.882812 C 133.121094 119.109375 133.480469 118.355469 133.875 117.621094 C 134.265625 116.882812 134.695312 116.167969 135.160156 115.472656 C 135.625 114.78125 136.121094 114.109375 136.648438 113.464844 C 137.179688 112.820312 137.742188 112.199219 138.332031 111.609375 C 138.921875 111.019531 139.539062 110.460938 140.183594 109.929688 C 140.832031 109.398438 141.5 108.902344 142.195312 108.4375 C 142.890625 107.976562 143.605469 107.546875 144.339844 107.152344 C 145.078125 106.757812 145.832031 106.402344 146.605469 106.082031 C 147.375 105.761719 148.160156 105.480469 148.960938 105.238281 C 149.757812 104.996094 150.566406 104.792969 151.386719 104.632812 C 152.207031 104.46875 153.03125 104.347656 153.863281 104.265625 C 154.695312 104.183594 155.527344 104.140625 156.363281 104.140625 C 157.199219 104.140625 158.03125 104.183594 158.863281 104.265625 C 159.691406 104.347656 160.519531 104.46875 161.335938 104.632812 C 162.15625 104.792969 162.964844 104.996094 163.765625 105.238281 C 164.5625 105.480469 165.347656 105.761719 166.121094 106.082031 C 166.890625 106.402344 167.644531 106.757812 168.382812 107.152344 C 169.121094 107.546875 169.835938 107.976562 170.527344 108.4375 C 171.222656 108.902344 171.894531 109.398438 172.539062 109.929688 C 173.183594 110.460938 173.804688 111.019531 174.394531 111.609375 C 174.984375 112.199219 175.542969 112.820312 176.074219 113.464844 C 176.605469 114.109375 177.101562 114.78125 177.566406 115.472656 C 178.027344 116.167969 178.457031 116.882812 178.851562 117.621094 C 179.246094 118.355469 179.601562 119.109375 179.921875 119.882812 C 180.242188 120.652344 180.523438 121.441406 180.765625 122.238281 C 181.007812 123.039062 181.210938 123.847656 181.371094 124.667969 C 181.535156 125.484375 181.65625 126.308594 181.738281 127.140625 C 181.820312 127.972656 181.863281 128.804688 181.863281 129.640625 Z M 181.863281 129.640625 " fill-opacity="1" fill-rule="nonzero"/></g></svg>